<svg width="36" height="36" fill="none" xmlns="http://www.w3.org/2000/svg"><path d="M3.6 9a3.6 3.6 0 0 1 3.6-3.6h12.6A3.6 3.6 0 0 1 23.4 9v7.2a3.6 3.6 0 0 1-3.6 3.6h-3.6l-5.4 5.4v-5.4H7.2a3.6 3.6 0 0 1-3.6-3.6V9Z" fill="url(#a)"/><path d="M27 12.6v3.6a7.2 7.2 0 0 1-7.2 7.2h-2.11l-3.178 3.18c.504.269 1.078.42 1.688.42h3.6l5.4 5.4V27h3.6a3.6 3.6 0 0 0 3.6-3.6v-7.2a3.6 3.6 0 0 0-3.6-3.6H27Z" fill="url(#b)"/><defs><linearGradient id="a" x1="13.5" y1="5.4" x2="13.5" y2="25.2" gradientUnits="userSpaceOnUse"><stop stop-color="#0276FF"/><stop offset="1" stop-color="#8002FF"/></linearGradient><linearGradient id="b" x1="23.456" y1="12.6" x2="23.456" y2="32.4" gradientUnits="userSpaceOnUse"><stop stop-color="#0276FF"/><stop offset="1" stop-color="#8002FF"/></linearGradient></defs></svg>