<svg width="64" height="64" viewBox="0 0 25 25" fill="none" xmlns="http://www.w3.org/2000/svg">
<path d="M5.81935 8.04272H0.800564C0.577823 8.04272 0.397339 8.22329 0.397339 8.44595V24.5692C0.397339 24.7919 0.577823 24.9724 0.800564 24.9724H5.81935C6.04209 24.9724 6.22258 24.7919 6.22258 24.5692V8.44595C6.22258 8.22329 6.04209 8.04272 5.81935 8.04272Z" fill="#2F2F2F"/>
<path d="M3.31177 0.0274658C1.48565 0.0274658 0 1.5115 0 3.33561C0 5.16053 1.48565 6.64513 3.31177 6.64513C5.13645 6.64513 6.62089 5.16045 6.62089 3.33561C6.62097 1.5115 5.13645 0.0274658 3.31177 0.0274658Z" fill="#2F2F2F"/>
<path d="M18.585 7.64197C16.5693 7.64197 15.0792 8.5085 14.1754 9.4931V8.44592C14.1754 8.22326 13.9949 8.04269 13.7722 8.04269H8.96579C8.74304 8.04269 8.56256 8.22326 8.56256 8.44592V24.5691C8.56256 24.7919 8.74304 24.9724 8.96579 24.9724H13.9736C14.1964 24.9724 14.3768 24.7919 14.3768 24.5691V16.5919C14.3768 13.9037 15.107 12.8565 16.9809 12.8565C19.0217 12.8565 19.1839 14.5354 19.1839 16.7302V24.5692C19.1839 24.792 19.3643 24.9724 19.5871 24.9724H24.5968C24.8195 24.9724 25 24.792 25 24.5692V15.7254C25 11.7282 24.2378 7.64197 18.585 7.64197Z" fill="#2F2F2F"/>
</svg>
