<svg width="55" height="30" viewBox="0 0 55 30" fill="none" xmlns="http://www.w3.org/2000/svg">
<path d="M23.7756 2.39743C25.4309 -0.469474 29.5689 -0.469473 31.2241 2.39743L42.7353 22.3355C44.3905 25.2024 42.3215 28.786 39.0111 28.786H15.9886C12.6782 28.786 10.6092 25.2024 12.2644 22.3355L23.7756 2.39743Z" fill="url(#paint0_linear_550_313)"/>
<path d="M54.3659 18.0353C54.3659 18.6254 53.8411 19.3463 52.472 20.1093C51.1452 20.8487 49.1922 21.5308 46.7359 22.1098C41.8312 23.2659 35.03 23.9858 27.5 23.9858C19.97 23.9858 13.1688 23.2659 8.26409 22.1098C5.80776 21.5308 3.85478 20.8487 2.52803 20.1093C1.1589 19.3463 0.634083 18.6254 0.634083 18.0353C0.634083 17.4451 1.1589 16.7242 2.52803 15.9612C3.85478 15.2218 5.80776 14.5397 8.26409 13.9607C13.1688 12.8046 19.97 12.0847 27.5 12.0847C35.03 12.0847 41.8312 12.8046 46.7359 13.9607C49.1922 14.5397 51.1452 15.2218 52.472 15.9612C53.8411 16.7242 54.3659 17.4451 54.3659 18.0353Z" stroke="white"/>
<path d="M54.3659 18.0353C54.3659 18.6254 53.8411 19.3463 52.472 20.1093C51.1452 20.8487 49.1922 21.5308 46.7359 22.1098C41.8312 23.2659 35.03 23.9858 27.5 23.9858C19.97 23.9858 13.1688 23.2659 8.26409 22.1098C5.80776 21.5308 3.85478 20.8487 2.52803 20.1093C1.1589 19.3463 0.634083 18.6254 0.634083 18.0353C0.634083 17.4451 1.1589 16.7242 2.52803 15.9612C3.85478 15.2218 5.80776 14.5397 8.26409 13.9607C13.1688 12.8046 19.97 12.0847 27.5 12.0847C35.03 12.0847 41.8312 12.8046 46.7359 13.9607C49.1922 14.5397 51.1452 15.2218 52.472 15.9612C53.8411 16.7242 54.3659 17.4451 54.3659 18.0353Z" stroke="url(#paint1_linear_550_313)"/>
<circle cx="27.4377" cy="18.15" r="11.2567" fill="white"/>
<path d="M11.8621 23.1173C24.231 25.0473 31.0574 25.0093 43.1374 23.1173" stroke="white"/>
<path d="M17.6175 23.9209C25.3738 24.9382 29.154 24.9027 37.2542 23.936" stroke="url(#paint2_linear_550_313)"/>
<defs>
<linearGradient id="paint0_linear_550_313" x1="27.4999" y1="-3.79157" x2="49.4903" y2="1.11346" gradientUnits="userSpaceOnUse">
<stop stop-color="#0276FF"/>
<stop offset="1" stop-color="#8002FF"/>
</linearGradient>
<linearGradient id="paint1_linear_550_313" x1="27.5" y1="9.75895" x2="50.6025" y2="29.4802" gradientUnits="userSpaceOnUse">
<stop stop-color="#0276FF"/>
<stop offset="1" stop-color="#8002FF"/>
</linearGradient>
<linearGradient id="paint2_linear_550_313" x1="27.4359" y1="23.8145" x2="27.9362" y2="26.4449" gradientUnits="userSpaceOnUse">
<stop stop-color="#0276FF"/>
<stop offset="1" stop-color="#8002FF"/>
</linearGradient>
</defs>
</svg>
