<svg width="55" height="30" viewBox="0 0 55 30" fill="none" xmlns="http://www.w3.org/2000/svg">
<path d="M23.7756 2.39737C25.4309 -0.469534 29.5689 -0.469533 31.2241 2.39737L42.7353 22.3354C44.3905 25.2023 42.3215 28.7859 39.0111 28.7859H15.9886C12.6782 28.7859 10.6092 25.2023 12.2644 22.3354L23.7756 2.39737Z" fill="url(#paint0_linear_835_2)"/>
<path d="M54.3659 18.0353C54.3659 18.6254 53.8411 19.3463 52.472 20.1093C51.1452 20.8487 49.1922 21.5308 46.7359 22.1098C41.8312 23.2659 35.03 23.9858 27.5 23.9858C19.97 23.9858 13.1688 23.2659 8.2641 22.1098C5.80777 21.5308 3.85479 20.8487 2.52804 20.1093C1.15891 19.3463 0.634094 18.6254 0.634094 18.0353C0.634094 17.4451 1.15891 16.7242 2.52804 15.9612C3.85479 15.2218 5.80777 14.5397 8.2641 13.9607C13.1688 12.8046 19.97 12.0847 27.5 12.0847C35.03 12.0847 41.8312 12.8046 46.7359 13.9607C49.1922 14.5397 51.1452 15.2218 52.472 15.9612C53.8411 16.7242 54.3659 17.4451 54.3659 18.0353Z" stroke="white"/>
<path d="M54.3659 18.0353C54.3659 18.6254 53.8411 19.3463 52.472 20.1093C51.1452 20.8487 49.1922 21.5308 46.7359 22.1098C41.8312 23.2659 35.03 23.9858 27.5 23.9858C19.97 23.9858 13.1688 23.2659 8.2641 22.1098C5.80777 21.5308 3.85479 20.8487 2.52804 20.1093C1.15891 19.3463 0.634094 18.6254 0.634094 18.0353C0.634094 17.4451 1.15891 16.7242 2.52804 15.9612C3.85479 15.2218 5.80777 14.5397 8.2641 13.9607C13.1688 12.8046 19.97 12.0847 27.5 12.0847C35.03 12.0847 41.8312 12.8046 46.7359 13.9607C49.1922 14.5397 51.1452 15.2218 52.472 15.9612C53.8411 16.7242 54.3659 17.4451 54.3659 18.0353Z" stroke="url(#paint1_linear_835_2)"/>
<path d="M27.4377 29.4067C33.6546 29.4067 38.6944 24.3669 38.6944 18.15C38.6944 11.9331 33.6546 6.89331 27.4377 6.89331C21.2208 6.89331 16.181 11.9331 16.181 18.15C16.181 24.3669 21.2208 29.4067 27.4377 29.4067Z" fill="white"/>
<path d="M11.8621 23.1173C24.231 25.0473 31.0574 25.0093 43.1374 23.1173" stroke="white"/>
<path d="M17.6175 23.9209C25.3738 24.9382 29.154 24.9027 37.2542 23.936" stroke="url(#paint2_linear_835_2)"/>
<defs>
<linearGradient id="paint0_linear_835_2" x1="27.4999" y1="-3.79163" x2="49.4903" y2="1.1134" gradientUnits="userSpaceOnUse">
<stop/>
<stop offset="1" stop-color="#6B6B6B"/>
</linearGradient>
<linearGradient id="paint1_linear_835_2" x1="27.5" y1="9.75897" x2="50.6025" y2="29.4802" gradientUnits="userSpaceOnUse">
<stop/>
<stop offset="1" stop-color="#242424"/>
</linearGradient>
<linearGradient id="paint2_linear_835_2" x1="27.4359" y1="23.8145" x2="27.9362" y2="26.4449" gradientUnits="userSpaceOnUse">
<stop/>
<stop offset="1"/>
</linearGradient>
</defs>
</svg>
