<svg width="74" height="74" viewBox="0 0 74 74" fill="none" xmlns="http://www.w3.org/2000/svg">
<circle cx="37" cy="37" r="37" fill="url(#paint0_linear_501_148)"/>
<path d="M45.712 51.8783H55.011V48.1587C55.0109 46.9992 54.6495 45.8685 53.9772 44.9239C53.3048 43.9792 52.3548 43.2675 51.2593 42.8876C50.1638 42.5078 48.9771 42.4787 47.8643 42.8044C46.7514 43.1302 45.7678 43.7945 45.0499 44.7051L45.712 51.8783ZM45.712 51.8783H27.1141H45.712ZM45.712 51.8783V48.1587C45.712 46.9387 45.4777 45.7726 45.0499 44.7051L45.712 51.8783ZM27.1141 51.8783H17.8152V48.1587C17.8153 46.9992 18.1766 45.8685 18.849 44.9239C19.5213 43.9792 20.4713 43.2675 21.5668 42.8876C22.6624 42.5078 23.849 42.4787 24.9619 42.8044C26.0747 43.1302 27.0584 43.7945 27.7762 44.7051L27.1141 51.8783ZM27.1141 51.8783V48.1587C27.1141 46.9387 27.3485 45.7726 27.7762 44.7051L27.1141 51.8783ZM27.7762 44.7051C28.4669 42.9792 29.6588 41.4997 31.1982 40.4576C32.7377 39.4155 34.5541 38.8585 36.4131 38.8585C38.2721 38.8585 40.0885 39.4155 41.6279 40.4576C43.1674 41.4997 44.3593 42.9792 45.0499 44.7051H27.7762ZM41.9924 27.7011C41.9924 29.1808 41.4046 30.5999 40.3583 31.6463C39.3119 32.6926 37.8928 33.2804 36.4131 33.2804C34.9333 33.2804 33.5142 32.6926 32.4679 31.6463C31.4215 30.5999 30.8337 29.1808 30.8337 27.7011C30.8337 26.2213 31.4215 24.8022 32.4679 23.7559C33.5142 22.7095 34.9333 22.1217 36.4131 22.1217C37.8928 22.1217 39.3119 22.7095 40.3583 23.7559C41.4046 24.8022 41.9924 26.2213 41.9924 27.7011V27.7011ZM53.1512 33.2804C53.1512 34.2669 52.7593 35.213 52.0617 35.9106C51.3642 36.6081 50.4181 37 49.4316 37C48.4451 37 47.499 36.6081 46.8015 35.9106C46.1039 35.213 45.712 34.2669 45.712 33.2804C45.712 32.2939 46.1039 31.3479 46.8015 30.6503C47.499 29.9527 48.4451 29.5609 49.4316 29.5609C50.4181 29.5609 51.3642 29.9527 52.0617 30.6503C52.7593 31.3479 53.1512 32.2939 53.1512 33.2804ZM27.1141 33.2804C27.1141 34.2669 26.7222 35.213 26.0247 35.9106C25.3271 36.6081 24.381 37 23.3946 37C22.4081 37 21.462 36.6081 20.7644 35.9106C20.0669 35.213 19.675 34.2669 19.675 33.2804C19.675 32.2939 20.0669 31.3479 20.7644 30.6503C21.462 29.9527 22.4081 29.5609 23.3946 29.5609C24.381 29.5609 25.3271 29.9527 26.0247 30.6503C26.7222 31.3479 27.1141 32.2939 27.1141 33.2804Z" stroke="white" stroke-width="2" stroke-linecap="round" stroke-linejoin="round"/>
<defs>
<linearGradient id="paint0_linear_501_148" x1="37" y1="-10.4725" x2="88.896" y2="-0.0302584" gradientUnits="userSpaceOnUse">
<stop stop-color="#0276FF"/>
<stop offset="1" stop-color="#8002FF"/>
</linearGradient>
</defs>
</svg>
