<svg width="45" height="45" viewBox="0 0 45 45" fill="none" xmlns="http://www.w3.org/2000/svg">
<path d="M31.7989 37.3136H41.0979V33.594C41.0978 32.4345 40.7365 31.3038 40.0641 30.3592C39.3917 29.4145 38.4418 28.7028 37.3462 28.3229C36.2507 27.9431 35.064 27.914 33.9512 28.2397C32.8384 28.5655 31.8547 29.2298 31.1369 30.1404L31.7989 37.3136ZM31.7989 37.3136H13.2011H31.7989ZM31.7989 37.3136V33.594C31.7989 32.374 31.5646 31.2079 31.1369 30.1404L31.7989 37.3136ZM13.2011 37.3136H3.90212V33.594C3.9022 32.4345 4.26354 31.3038 4.9359 30.3592C5.60827 29.4145 6.55824 28.7028 7.65378 28.3229C8.74931 27.9431 9.93597 27.914 11.0488 28.2397C12.1616 28.5655 13.1453 29.2298 13.8631 30.1404L13.2011 37.3136ZM13.2011 37.3136V33.594C13.2011 32.374 13.4354 31.2079 13.8631 30.1404L13.2011 37.3136ZM13.8631 30.1404C14.5538 28.4145 15.7457 26.935 17.2852 25.8929C18.8246 24.8508 20.641 24.2938 22.5 24.2938C24.359 24.2938 26.1754 24.8508 27.7148 25.8929C29.2543 26.935 30.4462 28.4145 31.1369 30.1404H13.8631ZM28.0794 13.1364C28.0794 14.6161 27.4915 16.0352 26.4452 17.0816C25.3989 18.1279 23.9797 18.7157 22.5 18.7157C21.0203 18.7157 19.6011 18.1279 18.5548 17.0816C17.5085 16.0352 16.9206 14.6161 16.9206 13.1364C16.9206 11.6566 17.5085 10.2375 18.5548 9.19117C19.6011 8.14483 21.0203 7.55701 22.5 7.55701C23.9797 7.55701 25.3989 8.14483 26.4452 9.19117C27.4915 10.2375 28.0794 11.6566 28.0794 13.1364V13.1364ZM39.2381 18.7157C39.2381 19.7022 38.8462 20.6483 38.1487 21.3459C37.4511 22.0434 36.505 22.4353 35.5185 22.4353C34.532 22.4353 33.5859 22.0434 32.8884 21.3459C32.1908 20.6483 31.7989 19.7022 31.7989 18.7157C31.7989 17.7292 32.1908 16.7832 32.8884 16.0856C33.5859 15.388 34.532 14.9962 35.5185 14.9962C36.505 14.9962 37.4511 15.388 38.1487 16.0856C38.8462 16.7832 39.2381 17.7292 39.2381 18.7157ZM13.2011 18.7157C13.2011 19.7022 12.8092 20.6483 12.1116 21.3459C11.4141 22.0434 10.468 22.4353 9.48148 22.4353C8.49499 22.4353 7.5489 22.0434 6.85135 21.3459C6.15379 20.6483 5.76191 19.7022 5.76191 18.7157C5.76191 17.7292 6.15379 16.7832 6.85135 16.0856C7.5489 15.388 8.49499 14.9962 9.48148 14.9962C10.468 14.9962 11.4141 15.388 12.1116 16.0856C12.8092 16.7832 13.2011 17.7292 13.2011 18.7157Z" stroke="white" stroke-width="2" stroke-linecap="round" stroke-linejoin="round"/>
</svg>
