<svg width="64" height="64" viewBox="0 0 25 25" fill="none" xmlns="http://www.w3.org/2000/svg">
<path d="M16.2142 0H2.70834V25H22.2917V6.0775L16.2142 0ZM14.375 12.9167C14.375 13.1471 14.1883 13.3333 13.9583 13.3333H9.79168C9.56168 13.3333 9.37501 13.1471 9.37501 12.9167C9.37501 12.6862 9.56168 12.5 9.79168 12.5H13.9583C14.1883 12.5 14.375 12.6862 14.375 12.9167ZM6.77584 9.78292L6.90918 9.47417C7.03043 9.19333 7.22959 8.97125 7.48501 8.83208L8.40334 8.37917C7.99959 8.12 7.70876 7.73 7.53543 7.21542C7.25043 7.04167 7.07084 6.73292 7.07084 6.38875V6.11083C7.07084 5.8325 7.19126 5.57208 7.39501 5.39C7.43501 5.13458 7.50084 4.89458 7.59126 4.67375C7.63376 4.57083 7.66959 4.49375 7.69834 4.43125C7.71751 4.38958 7.74168 4.33792 7.74501 4.32333C7.74626 4.31 7.74418 4.25958 7.70918 4.08458C7.68209 3.94833 7.66418 3.82333 7.65168 3.71625C7.63626 3.58208 7.67876 3.4475 7.76793 3.3475C7.95459 3.13917 8.31834 3.14875 8.49251 3.37083C8.52418 3.41125 8.58876 3.47708 8.71501 3.56208C8.92834 3.70625 9.21834 3.77125 9.52209 3.74458C9.58334 3.73958 9.64584 3.73708 9.71001 3.73708C11.3333 3.73708 11.8696 4.5925 12.0183 5.38333C12.2267 5.56583 12.3492 5.82833 12.3492 6.11042V6.38833C12.3492 6.7325 12.1696 7.04125 11.8846 7.215C11.7104 7.73167 11.4179 8.1225 11.0117 8.38208L11.8958 8.83333C12.1592 8.96542 12.3688 9.18667 12.4988 9.47125L12.6421 9.78458L12.3613 9.98417C11.58 10.54 10.6633 10.8333 9.70918 10.8333C8.75168 10.8333 7.83209 10.5379 7.04918 9.97833L6.77584 9.78292ZM8.12501 12.9167C8.12501 13.025 8.07918 13.1333 8.00418 13.2125C7.92501 13.2875 7.82084 13.3333 7.70834 13.3333C7.59584 13.3333 7.48751 13.2875 7.41251 13.2083C7.33751 13.1329 7.29168 13.025 7.29168 12.9167C7.29168 12.8079 7.33751 12.6996 7.41251 12.6208C7.56251 12.4708 7.85001 12.4667 8.00418 12.6208C8.07918 12.6996 8.12501 12.8079 8.12501 12.9167ZM7.29168 15C7.29168 14.7696 7.47834 14.5833 7.70834 14.5833H14.7917C15.0217 14.5833 15.2083 14.7696 15.2083 15C15.2083 15.2304 15.0217 15.4167 14.7917 15.4167H7.70834C7.47834 15.4167 7.29168 15.2304 7.29168 15ZM9.45251 19.9025C9.43959 20.285 9.01709 20.4283 8.74126 20.1971C8.35168 19.8704 7.96168 19.5442 7.57209 19.2175C7.15959 18.8717 7.75251 18.2854 8.16126 18.6279C8.33376 18.7725 8.50626 18.9167 8.67834 19.0613C8.79001 18.1192 9.09709 17.2108 10.01 16.7354C10.4858 16.4879 10.9075 17.2071 10.4304 17.455C9.52626 17.9262 9.48293 18.9996 9.45251 19.9025ZM15.6821 19.2746C15.5796 19.1342 14.2554 19.7792 13.8767 19.6425C13.5796 19.5354 13.3567 19.3987 13.1696 19.1979C12.2854 19.6775 11.2796 19.9371 10.5 19.09C10.1371 18.6954 10.7246 18.1046 11.0892 18.5008C11.7096 19.1754 12.4808 18.6546 13.0708 18.2925C13.2617 18.1754 13.5317 18.2471 13.6408 18.4421C14.0717 19.21 15.1138 18.3413 15.7208 18.3871C16.0429 18.4117 16.2246 18.6129 16.4008 18.8542C16.7192 19.2887 15.9954 19.7037 15.6821 19.2746ZM17.1708 15.2958C17.0917 15.3708 16.9833 15.4167 16.875 15.4167C16.7667 15.4167 16.6583 15.3708 16.5792 15.2958C16.5 15.2167 16.4583 15.1125 16.4583 15C16.4583 14.8871 16.5042 14.7829 16.5792 14.7042C16.7375 14.55 17.0125 14.55 17.1708 14.7042C17.2458 14.7829 17.2917 14.8912 17.2917 15C17.2917 15.1125 17.25 15.2167 17.1708 15.2958ZM19.2542 15.2917C19.175 15.3708 19.0667 15.4167 18.9583 15.4167C18.85 15.4167 18.7417 15.3708 18.6625 15.2958C18.5833 15.2167 18.5417 15.1125 18.5417 15C18.5417 14.8871 18.5875 14.7829 18.6625 14.7042C18.8208 14.55 19.0958 14.55 19.2542 14.7042C19.3292 14.7829 19.375 14.8912 19.375 15C19.375 15.1083 19.3333 15.2125 19.2542 15.2917ZM18.9583 13.3333H16.0417C15.8117 13.3333 15.625 13.1471 15.625 12.9167C15.625 12.6862 15.8117 12.5 16.0417 12.5H18.9583C19.1883 12.5 19.375 12.6862 19.375 12.9167C19.375 13.1471 19.1883 13.3333 18.9583 13.3333ZM15.625 6.66667V0.833333L21.4583 6.66667H15.625Z" fill="#2F2F2F"/>
</svg>
