<svg width="15" height="34" fill="none" xmlns="http://www.w3.org/2000/svg">
  <g clip-path="url(#a)" stroke-width="1.5">
    <path d="M.7443 8.0925c0-3.7942 3.0246-6.8699 6.7557-6.8699s6.7557 3.0757 6.7557 6.8699v10.9452c0 3.7941-3.0246 6.8698-6.7557 6.8698-3.731 0-6.7557-3.0757-6.7557-6.8698V8.0925Z" fill="url(#b)" stroke="url(#c)"/>
    <path d="M7.4428 7.685V4.6574" stroke="#fff" stroke-linecap="round"/>
    <path d="m10.8778 29.6918-3.4351 3.4931-3.4351-3.4931" stroke="url(#d)" stroke-linecap="round"/>
  </g>
  <defs>
    <linearGradient id="b" x1="7.5" y1="-2.2708" x2="-2.241" y2="-1.198" gradientUnits="userSpaceOnUse">
      <stop stop-color="#0276FF"/>
      <stop offset="1" stop-color="#8002FF"/>
    </linearGradient>
    <linearGradient id="c" x1="7.5" y1="-2.2708" x2="-2.241" y2="-1.198" gradientUnits="userSpaceOnUse">
      <stop stop-color="#0276FF"/>
      <stop offset="1" stop-color="#8002FF"/>
    </linearGradient>
    <linearGradient id="d" x1="7.4427" y1="29.1974" x2="3.1084" y2="30.9127" gradientUnits="userSpaceOnUse">
      <stop stop-color="#0276FF"/>
      <stop offset="1" stop-color="#8002FF"/>
    </linearGradient>
    <clipPath id="a">
      <path fill="#fff" transform="matrix(-1 0 0 1 15 0)" d="M0 0h15v34H0z"/>
    </clipPath>
  </defs>
</svg>
