<svg width="205" height="161" viewBox="0 0 205 161" fill="none" xmlns="http://www.w3.org/2000/svg">
<g filter="url(#filter0_d_550_345)">
<path d="M83.6509 90.4612C47.6692 90.4612 18.5002 74.2402 18.5002 54.2306C18.5002 34.221 47.6692 18 83.6509 18C119.633 18 148.802 34.221 148.802 54.2306C148.802 74.2402 119.633 90.4612 83.6509 90.4612Z" fill="white"/>
<path d="M122.773 112.74C110.777 112.74 101.052 107.333 101.052 100.663C101.052 93.9934 110.777 88.5864 122.773 88.5864C134.769 88.5864 144.494 93.9934 144.494 100.663C144.494 107.333 134.769 112.74 122.773 112.74Z" fill="white"/>
<path d="M152.281 118.425C146.637 118.425 142.061 115.88 142.061 112.74C142.061 109.601 146.637 107.056 152.281 107.056C157.925 107.056 162.5 109.601 162.5 112.74C162.5 115.88 157.925 118.425 152.281 118.425Z" fill="white"/>
<g clip-path="url(#clip0_550_345)">
<path d="M49.7498 52C49.7498 56.5563 46.056 60.2498 41.4999 60.2498C36.9434 60.2498 33.2499 56.5562 33.2499 52C33.2499 47.4435 36.9434 43.75 41.4999 43.75C46.056 43.75 49.7498 47.4435 49.7498 52Z" fill="#FFCE54"/>
<path d="M50.0979 43.402C49.2729 42.5775 47.3163 43.0614 44.9161 44.4888C45.1864 44.6118 45.4495 44.7492 45.7033 44.9C45.8214 44.8338 45.9389 44.7698 46.0548 44.7082C47.993 43.6841 49.2158 43.5805 49.5674 43.9324C49.9189 44.2842 49.8157 45.507 48.7918 47.4449C48.2655 48.4408 47.5602 49.5155 46.6956 50.6394C45.7934 51.8119 44.759 52.9836 43.6214 54.1217C42.4832 55.2588 41.3116 56.2937 40.1393 57.1957C39.0155 58.0603 37.9405 58.7656 36.9445 59.2919C35.0066 60.3158 33.7844 60.419 33.4323 60.0675C33.0802 59.716 33.1834 58.4932 34.2085 56.5552C34.2694 56.4388 34.3337 56.3217 34.3996 56.2037C34.2491 55.9499 34.1118 55.6868 33.9887 55.4165C32.561 57.8164 32.0771 59.773 32.9022 60.5981C34.3666 62.0625 39.4027 59.4 44.1514 54.6513C48.8994 49.9033 51.5624 44.8664 50.0979 43.402Z" fill="#F6BB42"/>
</g>
<g clip-path="url(#clip1_550_345)">
<path d="M108.5 57C108.5 61.4185 104.919 65 100.5 65C96.0819 65 92.4999 61.4185 92.4999 57C92.4999 52.5815 96.0819 49 100.5 49C104.919 49 108.5 52.5815 108.5 57Z" fill="#E6E9ED"/>
<path d="M108.427 58.0908C108.475 57.7339 108.5 57.3701 108.5 57C108.5 56.939 108.499 56.8784 108.498 56.8184C108.437 56.9634 108.309 57.1294 108.128 57.2954C107.758 57.6323 107.184 57.9561 106.47 58.232C105.706 58.5259 104.811 58.7583 103.811 58.9214C102.764 59.0918 101.65 59.1782 100.5 59.1782C99.3505 59.1782 98.2362 59.0918 97.1893 58.9214C96.1884 58.7583 95.2938 58.5259 94.5312 58.232C93.8163 57.9561 93.2431 57.6323 92.873 57.2954C92.6903 57.1294 92.5634 56.9634 92.5019 56.8184C92.5008 56.8784 92.4999 56.939 92.4999 57C92.4999 57.3701 92.5253 57.7339 92.5741 58.0908C93.9803 59.2334 97.0008 60.0239 100.5 60.0239C103.999 60.0239 107.019 59.2334 108.427 58.0908Z" fill="#CCD1D9"/>
<path d="M104.827 52.9849C105.6 53.7578 105.725 54.8863 105.107 55.5044C104.489 56.1226 103.361 55.9976 102.588 55.2241C101.814 54.4517 101.689 53.3233 102.308 52.7046C102.927 52.0864 104.055 52.2114 104.827 52.9849Z" fill="#656D78"/>
</g>
<g clip-path="url(#clip2_550_345)">
<path d="M81.4998 44C81.4998 48.9708 77.4711 53 72.5001 53C67.5296 53 63.5001 48.9708 63.5001 44C63.5001 39.0298 67.5296 35 72.5001 35C77.4711 35 81.4998 39.0298 81.4998 44Z" fill="#FC6E51"/>
<path d="M79.2497 42.5004C79.2497 43.5359 78.2423 44.3752 76.9997 44.3752C75.7575 44.3752 74.75 43.5359 74.75 42.5004C74.75 41.4644 75.7575 40.625 76.9997 40.625C78.2423 40.625 79.2497 41.4644 79.2497 42.5004Z" fill="#E9573F"/>
<path d="M71.4808 48.5C71.4808 49.1213 70.8093 49.625 69.9809 49.625C69.1525 49.625 68.4807 49.1213 68.4807 48.5C68.4807 47.8787 69.1525 47.375 69.9809 47.375C70.8093 47.375 71.4808 47.8787 71.4808 48.5Z" fill="#E9573F"/>
<path d="M69.2593 43.2502C69.2593 44.0786 68.4199 44.7504 67.3845 44.7504C66.3488 44.7504 65.5094 44.0786 65.5094 43.2502C65.5094 42.4219 66.3487 41.75 67.3845 41.75C68.4199 41.75 69.2593 42.4218 69.2593 43.2502Z" fill="#E9573F"/>
<path d="M74.75 38.375C74.7093 38.375 74.6698 38.3822 74.6335 38.3937C74.616 38.3997 72.8625 38.9683 70.9685 39.1276C69.1423 39.2808 67.9234 38.8535 67.2222 38.4678C66.5781 38.1141 66.2403 37.7296 66.1524 37.6202C65.9738 37.7977 65.8027 37.9828 65.6396 38.1751C65.8187 38.3783 66.1971 38.7524 66.814 39.099C67.9442 39.7351 69.1986 39.9087 70.2307 39.9087C70.5172 39.9087 70.7867 39.8955 71.0314 39.8746C72.9746 39.7115 74.7308 39.1506 74.8664 39.1062C75.0164 39.0573 75.1251 38.9166 75.1251 38.7502C75.1252 38.5431 74.9571 38.375 74.75 38.375Z" fill="#E9573F"/>
<path d="M81.3185 45.8083C80.9856 45.8759 79.23 46.2225 77.4974 46.3681C73.9535 46.6658 72.7143 45.9418 72.7022 45.9347C72.644 45.8974 72.5748 45.8754 72.5001 45.8754C72.293 45.8754 72.1249 46.0429 72.1249 46.25C72.1249 46.3829 72.1941 46.4994 72.2979 46.5658C72.3358 46.5905 72.6951 46.8103 73.5251 46.9817C74.1996 47.1212 74.9824 47.191 75.8657 47.191C76.3952 47.191 76.9613 47.1657 77.5601 47.1157C78.9872 46.9959 80.4286 46.7432 81.1152 46.6125C81.1943 46.3494 81.2624 46.0814 81.3185 45.8083Z" fill="#E9573F"/>
<path d="M75.5773 49.625C75.5037 49.625 75.4356 49.6464 75.3779 49.6827C75.3614 49.6931 73.7135 50.7149 71.8727 50.8692C69.985 51.0274 68.3563 50.7676 67.3222 50.5221C66.6811 50.3694 66.1829 50.2035 65.8717 50.0881C66.2678 50.5193 66.7053 50.9115 67.1777 51.2587C68.0363 51.4609 69.2668 51.6674 70.7065 51.6674C71.1015 51.6674 71.5124 51.652 71.9353 51.6163C73.9629 51.4466 75.7036 50.3633 75.7767 50.3177C75.8822 50.2513 75.9519 50.1337 75.9519 50.0002C75.9519 49.7931 75.7844 49.625 75.5773 49.625Z" fill="#E9573F"/>
</g>
<g clip-path="url(#clip3_550_345)">
<path d="M134.5 44C134.5 48.9702 130.471 53 125.5 53C120.53 53 116.5 48.9702 116.5 44C116.5 39.0295 120.53 35 125.5 35C130.471 35 134.5 39.0295 134.5 44Z" fill="#5D9CEC"/>
<path d="M134.059 41.2087C133.636 39.9134 132.909 38.7096 131.954 37.7274C131.001 36.7469 129.82 35.9858 128.539 35.5263L128.165 35.392L128.053 35.7738C128.001 35.9479 127.962 36.0737 127.935 36.1495C127.601 36.306 127.244 36.4472 126.899 36.5846C125.796 37.0212 124.657 37.473 123.871 38.509C123.529 38.9595 123.489 39.43 123.768 39.7365C123.914 39.8972 124.126 39.9788 124.399 39.9788C124.577 39.9788 124.763 39.9453 124.926 39.9159C125.042 39.895 125.161 39.8736 125.231 39.8736C125.236 39.8736 125.241 39.8739 125.245 39.8741C125.648 39.903 126.399 40.0455 127.071 40.2207C127.81 40.413 128.202 40.5756 128.369 40.6704C128.257 40.8039 127.956 41.0102 127.554 41.0102C127.357 41.0102 127.166 40.9594 126.985 40.8593C126.708 40.7063 126.013 40.5611 125.056 40.3902L124.964 40.3735C124.923 40.3663 124.878 40.3627 124.824 40.3627C124.422 40.3627 123.473 40.5575 122.763 41.2949C122.142 41.9395 121.848 42.8281 121.89 43.9355C121.915 44.6163 122.146 45.1942 122.558 45.6062C122.976 46.0248 123.558 46.2495 124.241 46.2577C124.322 46.2582 124.404 46.2582 124.485 46.2582H124.539C124.934 46.2582 125.342 46.2582 125.643 46.3719C125.836 46.4444 126.074 46.5873 126.203 47.0509C126.336 47.5332 126.374 48.0265 126.414 48.5488C126.451 49.0405 126.491 49.5491 126.616 50.0545C126.864 51.0554 127.376 51.3053 127.761 51.3388C127.816 51.3432 127.87 51.3454 127.924 51.3454C128.781 51.3454 129.35 50.7686 129.816 50.2276C129.927 50.0984 130.048 49.9737 130.177 49.8419C130.46 49.5513 130.753 49.2509 130.962 48.8691C131.203 48.4296 131.289 47.9682 131.374 47.5227C131.453 47.0998 131.529 46.7004 131.73 46.351C131.757 46.3038 131.789 46.2499 131.825 46.189C132.846 44.438 133.091 43.7899 132.875 43.4139C132.778 43.2452 132.6 43.154 132.393 43.17C132.294 43.1777 132.196 43.1815 132.102 43.1815C131.487 43.1815 130.979 43.0123 130.707 42.7173C130.63 42.6338 130.593 42.5618 130.577 42.514C130.586 42.5135 130.596 42.5132 130.608 42.5132C130.789 42.5132 131.065 42.5871 131.333 42.6588C131.656 42.7456 131.992 42.8351 132.286 42.8351C132.766 42.8351 133.078 42.586 133.146 42.1498C133.214 42.0262 133.534 41.7249 133.75 41.6966L134.199 41.6381L134.059 41.2087Z" fill="#A0D468"/>
<path d="M119.388 45.7534C119.106 45.3436 118.784 44.947 118.494 44.5436C118.224 44.1673 117.17 42.4562 116.682 42.1931C116.563 42.777 116.5 43.3812 116.5 44C116.5 46.1907 117.283 48.1979 118.584 49.759C118.585 49.7601 118.587 49.7607 118.589 49.7607C118.668 49.7607 119.401 49.2158 119.468 49.1592C119.756 48.9142 119.998 48.6148 120.106 48.2462C120.359 47.3882 119.863 46.4434 119.388 45.7534Z" fill="#A0D468"/>
</g>
</g>
<defs>
<filter id="filter0_d_550_345" x="0.500183" y="0" width="204" height="160.425" filterUnits="userSpaceOnUse" color-interpolation-filters="sRGB">
<feFlood flood-opacity="0" result="BackgroundImageFix"/>
<feColorMatrix in="SourceAlpha" type="matrix" values="0 0 0 0 0 0 0 0 0 0 0 0 0 0 0 0 0 0 127 0" result="hardAlpha"/>
<feMorphology radius="2" operator="erode" in="SourceAlpha" result="effect1_dropShadow_550_345"/>
<feOffset dx="12" dy="12"/>
<feGaussianBlur stdDeviation="16"/>
<feComposite in2="hardAlpha" operator="out"/>
<feColorMatrix type="matrix" values="0 0 0 0 0 0 0 0 0 0 0 0 0 0 0 0 0 0 0.25 0"/>
<feBlend mode="normal" in2="BackgroundImageFix" result="effect1_dropShadow_550_345"/>
<feBlend mode="normal" in="SourceGraphic" in2="effect1_dropShadow_550_345" result="shape"/>
</filter>
<clipPath id="clip0_550_345">
<rect width="18" height="18" fill="white" transform="translate(32.4999 43)"/>
</clipPath>
<clipPath id="clip1_550_345">
<rect width="16" height="16" fill="white" transform="translate(92.4999 49)"/>
</clipPath>
<clipPath id="clip2_550_345">
<rect width="18" height="18" fill="white" transform="translate(63.4999 35)"/>
</clipPath>
<clipPath id="clip3_550_345">
<rect width="18" height="18" fill="white" transform="translate(116.5 35)"/>
</clipPath>
</defs>
</svg>
