<svg width="3000" height="3000" viewBox="0 0 3000 3000" fill="none" xmlns="http://www.w3.org/2000/svg">
<path d="M1439.4 2842.04C1077.6 3043.04 621.301 2912.74 420.301 2550.94C385.401 2488.24 360.601 2422.64 345.101 2356.14C338.401 2327.14 333.401 2298.04 330.201 2268.84C299.501 1989.14 429.001 1705.44 680.801 1549.84C690.801 1543.64 700.901 1537.74 711.301 1531.94C839.001 1461.04 978.301 1431.34 1114.1 1438.54C1262 1446.34 1405.7 1497.94 1525.2 1587.44C1606.9 1648.74 1677.4 1727.84 1730.3 1822.94C1771.3 1896.64 1798.5 1974.24 1812.8 2052.84C1868.8 2360.14 1727.5 2682.04 1439.4 2842.04Z" fill="#D1D1D1"/>
<g opacity="0.4">
<g opacity="0.4">
<g opacity="0.4">
<g opacity="0.4">
<path opacity="0.4" d="M467.601 2585.64C432.701 2522.94 407.901 2457.34 392.401 2390.84C385.701 2361.84 380.701 2332.74 377.501 2303.54C346.801 2023.84 476.301 1740.14 728.101 1584.54C738.101 1578.34 748.201 1572.44 758.601 1566.64C886.301 1495.74 1025.6 1466.04 1161.4 1473.24C1297.1 1480.44 1429.1 1524.34 1542.3 1600.74C1536.7 1596.24 1531 1591.84 1525.3 1587.54C1405.7 1497.94 1262.1 1446.44 1114.2 1438.64C978.401 1431.44 839.001 1461.14 711.401 1532.04C701.101 1537.84 690.901 1543.74 680.901 1549.94C429.101 1705.54 299.601 1989.24 330.301 2268.94C333.501 2298.14 338.401 2327.24 345.201 2356.24C360.601 2422.84 385.501 2488.34 420.401 2551.04C479.701 2657.84 561.301 2744.44 656.101 2808.34C581.401 2748.94 516.801 2674.24 467.601 2585.64Z" fill="white"/>
</g>
</g>
</g>
</g>
<g opacity="0.35">
<g opacity="0.35">
<g opacity="0.35">
<g opacity="0.35">
<path opacity="0.35" d="M1508.8 1575.34C1505.2 1657.84 1468.2 1734.64 1401.9 1742.94C1293.9 1756.54 1277.2 1649.04 1269.7 1674.64C1250.7 1739.34 1186.8 1796.14 1109.2 1778.14C991.902 1750.94 995.501 1640.94 882.901 1643.34C763.501 1645.94 694.402 1603.44 668.102 1557.94C678.102 1551.74 701.101 1537.64 711.501 1531.94C839.201 1461.04 978.502 1431.34 1114.3 1438.54C1262.1 1446.34 1389.2 1485.74 1508.8 1575.34Z" fill="black"/>
</g>
</g>
</g>
</g>
<g opacity="0.35">
<g opacity="0.35">
<g opacity="0.35">
<g opacity="0.35">
<path opacity="0.35" d="M1439.4 2842.04C1077.6 3043.04 621.302 2912.74 420.302 2550.94C385.402 2488.24 360.602 2422.64 345.102 2356.14C341.102 2339.14 337.802 2322.04 335.102 2304.94C476.802 2479.84 680.702 2585.44 896.102 2607.24L892.702 2603.64C886.902 2580.34 887.502 2555.84 895.702 2532.24C919.602 2463.64 975.301 2416.34 1083.4 2453.94C1145.1 2475.44 1185.5 2528.64 1188.5 2584.64C1254.6 2567.34 1319.5 2541.64 1382 2506.84C1385.3 2505.04 1388.5 2503.14 1391.8 2501.34C1380.9 2457.94 1392.8 2405.84 1427.6 2364.14C1477.2 2304.84 1555.7 2287.34 1609.2 2321.44C1699.1 2216.44 1760.4 2091.44 1789.4 1958.84C1799.3 1989.84 1807.1 2021.14 1812.8 2052.64C1868.8 2360.04 1727.5 2681.94 1439.4 2842.04Z" fill="black"/>
</g>
</g>
</g>
</g>
<path d="M1080.4 2949.74C1010 2949.74 939.201 2939.94 869.601 2920.04C673.501 2864.04 511.001 2735.04 412.001 2556.84C207.501 2188.94 340.501 1723.24 708.501 1518.74C1076.5 1314.24 1542.1 1447.24 1746.6 1815.24C1951.1 2183.14 1818.1 2648.84 1450.1 2853.34C1335.1 2917.24 1208.5 2949.74 1080.4 2949.74ZM1078.1 1450.74C957.301 1450.74 835.001 1480.54 722.101 1543.24C367.601 1740.24 239.501 2188.84 436.501 2543.24C531.901 2714.94 688.501 2839.24 877.401 2893.14C1066.3 2947.14 1264.9 2924.24 1436.6 2828.84C1791.1 2631.84 1919.2 2183.24 1722.2 1828.84C1587.9 1587.24 1336.6 1450.74 1078.1 1450.74Z" fill="black"/>
<path d="M1469.7 1381.84C1450.9 1360.84 1417.5 1340.54 1365.3 1339.94C1373.8 1261.54 1381.7 1175.44 1381.2 1140.94C1380.6 1094.54 1364.8 1032.24 1354.4 996.041C1349.2 978.141 1345.5 966.641 1345.5 966.641C1331.5 980.341 1222.8 974.141 1222.8 974.141C1053.3 970.341 916.601 845.941 879.001 808.241L875.301 784.741C868.501 791.141 861.601 797.841 854.901 804.741C854.601 805.041 854.301 805.341 854.101 805.641C827.801 832.441 802.401 862.641 779.601 898.641C739.601 961.541 699.901 1049.84 687.201 1089.14C687.001 1089.84 686.701 1090.64 686.501 1091.34C686.501 1091.44 686.501 1091.44 686.401 1091.54C684.301 1098.14 682.401 1104.64 680.501 1111.14C680.201 1112.34 679.801 1113.44 679.501 1114.64C669.801 1148.54 662.301 1181.64 657.201 1213.34C657.001 1214.24 656.901 1215.24 656.801 1216.14C654.001 1233.74 652.001 1250.84 650.601 1267.54C650.601 1268.14 650.501 1268.64 650.501 1269.24C650.201 1273.64 649.901 1277.94 649.601 1282.34C649.601 1283.24 649.501 1284.04 649.501 1284.94C649.301 1289.14 649.101 1293.34 649.001 1297.44C649.001 1298.14 648.901 1298.94 648.901 1299.64C648.801 1304.54 648.701 1309.34 648.701 1314.04C648.701 1316.94 648.701 1319.84 648.801 1322.64C648.801 1323.74 648.901 1324.84 648.901 1325.84C648.901 1326.84 648.901 1327.74 649.001 1328.74C649.001 1330.34 649.101 1331.84 649.201 1333.34C649.201 1333.94 649.201 1334.54 649.301 1335.04C649.301 1335.34 649.301 1335.64 649.301 1335.84C649.501 1340.24 649.801 1344.54 650.101 1348.94C650.101 1349.64 650.201 1350.24 650.201 1350.94C650.201 1351.14 650.201 1351.24 650.201 1351.44C650.401 1354.04 650.601 1356.54 650.801 1359.14C651.201 1362.34 651.501 1365.64 651.901 1368.84C652.601 1374.64 653.401 1380.34 654.301 1385.94C654.501 1386.84 654.601 1387.74 654.801 1388.74C655.201 1391.24 655.701 1393.74 656.101 1396.24C657.001 1400.64 657.901 1404.94 658.901 1409.24C659.301 1410.84 659.601 1412.44 660.001 1414.04C660.401 1415.44 660.701 1416.84 661.101 1418.24C662.001 1421.44 662.901 1424.64 663.801 1427.64C663.901 1427.84 663.901 1428.14 664.001 1428.34C664.201 1429.14 664.501 1429.94 664.701 1430.74C665.001 1431.64 665.201 1432.54 665.501 1433.34C666.001 1435.04 666.601 1436.64 667.101 1438.24C667.601 1439.64 668.101 1441.14 668.601 1442.54C670.601 1448.14 672.801 1453.54 675.101 1458.84C676.201 1461.34 677.301 1463.94 678.501 1466.44C679.201 1467.94 679.901 1469.34 680.701 1470.84C682.101 1473.84 683.701 1476.64 685.301 1479.54C686.901 1482.34 688.501 1485.14 690.101 1487.84V1487.94C696.501 1498.34 703.601 1507.84 711.401 1516.64C712.001 1517.34 712.601 1517.94 713.201 1518.64C713.301 1518.74 713.401 1518.94 713.601 1519.04C714.001 1519.44 714.301 1519.84 714.701 1520.14C715.201 1520.64 715.701 1521.14 716.201 1521.64C717.101 1522.64 718.101 1523.64 719.101 1524.64C724.801 1530.24 730.701 1535.44 737.101 1540.34C738.101 1541.14 739.201 1541.94 740.201 1542.74C744.001 1545.54 747.901 1548.04 751.901 1550.54C753.901 1551.74 755.901 1553.04 758.001 1554.14C759.401 1554.94 760.901 1555.74 762.401 1556.54C764.001 1557.34 765.701 1558.24 767.401 1559.14C769.101 1559.94 770.801 1560.74 772.601 1561.54C774.101 1562.24 775.601 1562.84 777.201 1563.54C778.101 1563.84 778.901 1564.24 779.801 1564.54C780.501 1564.84 781.101 1565.04 781.801 1565.34C782.201 1565.54 782.601 1565.64 783.001 1565.84C783.701 1566.14 784.501 1566.44 785.201 1566.74C786.601 1567.24 788.101 1567.74 789.501 1568.24C791.101 1568.84 792.701 1569.34 794.301 1569.84C794.801 1570.04 795.401 1570.14 795.901 1570.34C796.901 1570.64 797.801 1570.94 798.801 1571.24C801.801 1572.14 804.901 1572.94 808.001 1573.74C809.601 1574.14 811.201 1574.54 812.901 1574.94C813.701 1575.14 814.601 1575.24 815.401 1575.44C816.001 1575.54 816.701 1575.74 817.301 1575.84C818.401 1576.04 819.501 1576.24 820.601 1576.44C820.901 1576.54 821.201 1576.54 821.501 1576.64C821.801 1576.74 822.101 1576.74 822.501 1576.84C823.601 1577.04 824.701 1577.24 825.801 1577.44C828.201 1577.84 830.701 1578.14 833.101 1578.44C834.701 1578.64 836.301 1578.94 838.001 1579.14C839.701 1579.34 841.501 1579.54 843.201 1579.64C845.401 1579.84 847.601 1580.04 849.801 1580.14C850.301 1580.14 850.701 1580.24 851.201 1580.24C852.401 1580.34 853.601 1580.44 854.801 1580.44C855.601 1580.54 856.501 1580.54 857.301 1580.54C857.701 1580.54 858.101 1580.64 858.501 1580.64C859.701 1580.64 860.901 1580.74 862.101 1580.74C862.501 1580.74 862.901 1580.74 863.301 1580.74C865.601 1580.74 867.901 1580.84 870.201 1580.84C881.901 1580.84 894.201 1580.14 906.901 1578.74C919.301 1577.44 932.301 1575.34 945.601 1572.64C946.801 1572.44 948.001 1572.14 949.301 1571.94C951.301 1571.54 953.301 1571.14 955.201 1570.84C1016.6 1560.74 1019.8 1606.64 1054.7 1681.64C1066.1 1706.14 1089.5 1721.44 1116.2 1727.04C1150 1734.24 1189.2 1726.04 1216.6 1701.54C1233 1686.94 1245.2 1666.54 1249.5 1640.14C1251.4 1628.24 1252.6 1616.64 1253 1605.24C1253.2 1601.44 1253.2 1597.64 1253.2 1593.94C1253.2 1593.44 1253.2 1593.04 1253.2 1592.54C1253.2 1590.64 1253.2 1588.84 1253.1 1586.94C1253.1 1585.74 1253 1584.54 1253 1583.24V1582.84C1252.9 1580.54 1252.8 1578.14 1252.6 1575.84C1252.5 1574.84 1252.4 1573.94 1252.3 1572.94C1252 1569.14 1251.7 1565.34 1251.3 1561.54C1251.1 1560.04 1250.9 1558.64 1250.7 1557.14C1250.6 1556.44 1250.5 1555.74 1250.4 1555.04C1250.2 1553.64 1250 1552.24 1249.8 1550.84C1249.7 1550.04 1249.5 1549.24 1249.4 1548.44C1249.3 1547.84 1249.2 1547.24 1249.1 1546.74C1249 1546.14 1248.9 1545.54 1248.8 1544.84C1248.6 1543.84 1248.5 1542.84 1248.3 1541.84C1248.2 1541.34 1248.1 1540.74 1248 1540.24C1248 1540.14 1248 1540.04 1247.9 1539.94C1247.6 1538.44 1247.3 1537.04 1247 1535.64C1246.8 1534.64 1246.6 1533.74 1246.4 1532.84C1246.1 1531.44 1245.8 1529.94 1245.4 1528.54C1245.4 1528.44 1245.4 1528.44 1245.4 1528.34C1244.7 1525.34 1243.9 1522.34 1243.1 1519.44C1242.9 1518.54 1242.6 1517.64 1242.3 1516.74C1242.2 1516.24 1242 1515.64 1241.9 1515.14C1240.7 1511.14 1239.5 1507.14 1238.2 1503.34C1237.9 1502.34 1237.5 1501.44 1237.2 1500.44C1236.8 1499.24 1236.4 1498.04 1236 1496.94C1235.6 1495.74 1235.1 1494.54 1234.6 1493.34C1234.6 1493.24 1234.5 1493.14 1234.5 1493.14C1233.9 1491.54 1233.3 1490.14 1232.7 1488.64C1232.3 1487.74 1232 1486.94 1231.6 1486.04C1231.3 1485.44 1231.1 1484.84 1230.8 1484.14C1230.7 1483.84 1230.5 1483.54 1230.4 1483.24C1230.3 1482.94 1230.1 1482.54 1230 1482.34C1229.5 1481.24 1229.1 1480.24 1228.6 1479.24C1228.3 1478.64 1228 1477.94 1227.7 1477.34C1228.5 1477.44 1229.4 1477.54 1230.2 1477.74C1248.9 1480.54 1266.3 1483.14 1281.5 1485.24L1282.6 1492.94C1282.6 1492.94 1282 1500.74 1280.8 1607.64C1279.8 1695.64 1411.3 1735.34 1465 1631.54C1520.9 1524.24 1498.7 1414.34 1469.7 1381.84Z" fill="white"/>
<path d="M1140.5 1731.84C1132.2 1731.84 1123.9 1731.04 1115.8 1729.24C1086.3 1722.94 1064 1706.44 1052.9 1682.64C1046.1 1668.04 1040.4 1654.34 1035.4 1642.24C1014.8 1592.44 1003.4 1565.04 955.501 1572.94C953.601 1573.24 951.701 1573.64 949.701 1574.04L946.001 1574.74C932.601 1577.44 919.501 1579.44 907.101 1580.84C891.801 1582.44 876.901 1583.04 863.201 1582.84L854.501 1582.54C853.401 1582.54 852.301 1582.44 851.201 1582.34L849.501 1582.24C847.901 1582.14 846.401 1582.04 844.801 1581.84L842.801 1581.64C841.601 1581.54 840.401 1581.44 839.201 1581.24L837.501 1581.04C836.501 1580.94 835.501 1580.74 834.501 1580.64L830.701 1580.14C828.801 1579.84 826.901 1579.64 825.101 1579.34C824.001 1579.14 822.901 1578.94 821.801 1578.74L820.801 1578.54L820.301 1576.44L820.001 1578.44C818.901 1578.24 817.701 1578.04 816.601 1577.84L812.101 1576.94C810.701 1576.64 809.401 1576.24 808.001 1575.94L807.201 1575.74C804.101 1574.94 801.001 1574.14 797.901 1573.24C797.101 1573.04 796.301 1572.74 795.601 1572.54L793.401 1571.84C791.801 1571.34 790.201 1570.84 788.601 1570.24L787.601 1569.84C786.501 1569.44 785.401 1569.04 784.301 1568.64C783.701 1568.44 783.101 1568.14 782.401 1567.94L776.201 1565.44C774.501 1564.74 773.001 1564.04 771.501 1563.34C769.701 1562.54 767.901 1561.74 766.301 1560.84C764.601 1559.94 762.801 1559.14 761.201 1558.24C759.701 1557.44 758.201 1556.64 756.701 1555.84C755.001 1554.84 753.301 1553.84 751.601 1552.84L750.601 1552.24C745.901 1549.34 742.101 1546.84 738.801 1544.34C737.701 1543.54 736.701 1542.74 735.601 1541.94C729.301 1537.14 723.201 1531.84 717.401 1526.14C716.401 1525.14 715.401 1524.14 714.401 1523.14L709.601 1518.04C701.701 1509.14 694.401 1499.44 688.001 1489.04C686.301 1486.24 684.701 1483.44 683.101 1480.64C681.501 1477.74 680.001 1474.84 678.501 1471.84C677.801 1470.44 677.001 1468.94 676.301 1467.44C675.301 1465.44 674.401 1463.34 673.601 1461.34L673.001 1459.84C670.401 1453.84 668.201 1448.54 666.401 1443.44C665.901 1441.94 665.401 1440.54 664.901 1439.14C664.301 1437.54 663.801 1435.84 663.301 1434.14L661.701 1429.14L663.401 1427.84L661.501 1428.44C660.601 1425.34 659.701 1422.14 658.801 1418.94C658.601 1418.04 658.401 1417.14 658.101 1416.34L656.601 1409.94C655.601 1405.64 654.601 1401.34 653.801 1396.94C653.401 1394.64 653.001 1392.34 652.601 1389.94L652.001 1386.54C651.101 1381.44 650.401 1376.04 649.601 1369.34L648.301 1356.44C648.201 1354.94 648.001 1353.34 647.901 1351.84L647.701 1349.44C647.401 1345.14 647.101 1340.74 646.901 1336.34C646.901 1336.24 646.901 1335.74 646.901 1335.44L646.801 1333.84C646.701 1331.94 646.701 1330.54 646.601 1329.14L646.401 1322.94C646.401 1320.04 646.301 1317.14 646.301 1314.34C646.301 1309.54 646.401 1304.74 646.501 1299.84L646.601 1297.64C646.701 1293.44 646.901 1289.24 647.101 1285.04L647.201 1282.44C647.401 1278.14 647.701 1273.74 648.101 1269.34L648.201 1267.64C649.601 1250.94 651.701 1233.54 654.401 1216.04L654.801 1213.24C660.001 1181.34 667.501 1148.14 677.201 1114.34L678.201 1110.84C680.101 1104.34 682.001 1097.74 684.101 1091.14L684.901 1088.74C697.401 1050.14 736.501 962.241 777.501 897.741C798.201 865.241 822.601 834.641 852.301 804.441L853.201 803.541C859.501 797.141 866.201 790.541 873.701 783.541L876.501 780.941L880.701 807.541C919.101 845.941 1054.9 968.641 1222.7 972.341C1252.8 974.041 1333 976.041 1343.9 965.341L1346.2 963.141L1347.2 966.141C1347.2 966.241 1351.1 977.841 1356.2 995.641C1366 1029.64 1382.4 1093.74 1383.1 1141.04C1383.5 1170.34 1377.7 1243.84 1367.4 1338.04C1425.6 1339.34 1457.3 1365.14 1471.1 1380.54C1499.8 1412.74 1523 1524.44 1467 1632.54C1436.6 1691.24 1383.8 1701.54 1347.8 1692.54C1306.2 1682.14 1278.6 1648.04 1279 1607.64C1280.2 1501.84 1280.8 1493.14 1280.8 1492.84L1279.9 1487.14C1265.3 1485.04 1248.8 1482.64 1231.1 1479.94L1233.7 1485.84C1234 1486.54 1234.3 1487.24 1234.6 1488.04C1235.2 1489.54 1235.8 1491.04 1236.4 1492.64C1236.9 1494.04 1237.4 1495.24 1237.9 1496.44C1238.2 1497.14 1238.4 1497.94 1238.7 1498.74L1239.5 1501.04C1239.7 1501.64 1240 1502.34 1240.2 1502.94C1241.5 1506.74 1242.7 1510.74 1243.9 1514.84L1245.1 1519.14C1245.9 1522.04 1246.7 1525.04 1247.4 1528.04C1247.8 1529.64 1248.1 1531.04 1248.4 1532.54C1248.6 1533.44 1248.8 1534.44 1249 1535.44C1249.3 1536.84 1249.6 1538.24 1249.9 1539.74C1250 1540.54 1250.1 1541.04 1250.2 1541.54C1250.4 1542.44 1250.5 1543.24 1250.7 1544.04L1251.1 1546.54C1251.2 1546.94 1251.2 1547.34 1251.3 1547.74L1253.2 1561.54C1253.6 1565.34 1253.9 1569.14 1254.2 1573.04L1254.3 1574.34C1254.4 1574.84 1254.4 1575.44 1254.4 1575.94L1254.8 1584.74C1254.8 1585.54 1254.9 1586.44 1254.9 1587.24C1255 1589.04 1255 1590.94 1255 1592.84V1594.24C1255 1598.04 1254.9 1601.84 1254.8 1605.64C1254.3 1617.34 1253.1 1629.24 1251.3 1640.84C1247.2 1665.84 1235.6 1687.54 1217.7 1703.44C1197.3 1721.74 1169.1 1731.84 1140.5 1731.84ZM970.701 1567.64C1008.9 1567.64 1020.8 1596.44 1039.2 1640.84C1044.2 1652.84 1049.8 1666.44 1056.6 1681.04C1067.1 1703.64 1088.5 1719.34 1116.7 1725.34C1151.9 1732.84 1189.7 1723.24 1215.4 1700.34C1232.5 1685.04 1243.7 1664.24 1247.7 1640.14C1249.6 1628.74 1250.7 1617.04 1251.2 1605.44C1251.3 1601.64 1251.4 1597.94 1251.4 1594.24V1592.94C1251.4 1591.04 1251.4 1589.24 1251.3 1587.44C1251.3 1586.64 1251.3 1585.84 1251.2 1585.04L1250.5 1573.54C1250.2 1569.74 1249.9 1565.94 1249.5 1562.24L1247.6 1548.54C1247.5 1548.14 1247.5 1547.84 1247.4 1547.44L1247 1544.94C1246.9 1544.14 1246.7 1543.44 1246.6 1542.64C1246.5 1542.04 1246.4 1541.44 1246.3 1540.94C1246 1539.24 1245.7 1537.84 1245.4 1536.44C1245.2 1535.44 1245 1534.54 1244.8 1533.64C1244.5 1532.14 1244.1 1530.74 1243.8 1529.34C1243.1 1526.14 1242.3 1523.24 1241.5 1520.34L1240.3 1516.04C1239.1 1512.04 1237.9 1508.14 1236.6 1504.34C1236.4 1503.74 1236.2 1503.14 1236 1502.54L1235.2 1500.24C1234.9 1499.44 1234.7 1498.74 1234.4 1497.94C1234 1496.74 1233.5 1495.54 1233 1494.44C1232.3 1492.64 1231.7 1491.14 1231.1 1489.74C1230.8 1489.04 1230.5 1488.34 1230.2 1487.64L1225.9 1477.64V1475.24L1228.2 1475.64C1229 1475.74 1229.8 1475.84 1230.7 1475.94C1249.4 1478.74 1266.8 1481.34 1282.1 1483.44L1283.6 1483.64L1284.9 1492.74C1284.9 1493.54 1284.3 1502.94 1283.1 1607.74C1282.7 1646.24 1309.1 1678.74 1348.8 1688.64C1383.4 1697.24 1434.2 1687.24 1463.5 1630.64C1518.6 1524.14 1496.2 1414.54 1468.1 1383.14C1454.6 1368.04 1423.3 1342.64 1365.2 1341.94H1363L1363.2 1339.74C1373.6 1244.64 1379.5 1170.34 1379.1 1141.04C1378.5 1094.14 1362.1 1030.44 1352.4 996.641C1348.7 983.841 1345.7 974.241 1344.3 969.941C1323.7 981.541 1233.3 976.841 1222.6 976.241C1052.7 972.441 915.501 847.841 877.501 809.841L877.001 809.341L873.801 788.941C867.501 794.941 861.701 800.641 856.201 806.241L855.401 807.141C826.001 837.141 801.701 867.441 781.101 899.741C740.301 963.941 701.301 1051.44 688.901 1089.84L688.201 1091.94C686.101 1098.74 684.101 1105.24 682.301 1111.74L681.301 1115.24C671.701 1148.84 664.201 1182.04 659.001 1213.74L658.601 1216.54C655.801 1233.94 653.801 1251.24 652.401 1267.84L652.301 1269.54C652.001 1273.94 651.701 1278.24 651.401 1282.54L651.301 1285.14C651.101 1289.34 650.901 1293.54 650.801 1297.64L650.701 1299.84C650.601 1304.64 650.501 1309.44 650.501 1314.24C650.501 1317.14 650.501 1319.94 650.601 1322.84L650.801 1328.94C650.801 1330.34 650.901 1331.74 650.901 1333.04L651.001 1335.24C651.001 1335.54 651.001 1335.74 651.001 1335.94C651.201 1340.54 651.501 1344.84 651.801 1349.14L651.901 1351.14C652.001 1353.14 652.201 1354.64 652.301 1356.14L653.601 1368.94C654.401 1375.44 655.201 1380.84 656.001 1385.94L656.601 1389.24C657.001 1391.54 657.401 1393.84 657.801 1396.14C658.601 1400.54 659.601 1404.74 660.601 1409.04L662.101 1415.34C662.301 1416.24 662.601 1417.14 662.801 1418.04C663.701 1421.14 664.601 1424.24 665.501 1427.34L667.301 1433.04C667.801 1434.64 668.301 1436.34 668.901 1437.94C669.401 1439.34 669.901 1440.74 670.401 1442.24C672.201 1447.24 674.301 1452.54 676.901 1458.44L677.501 1459.94C678.401 1461.94 679.301 1464.04 680.201 1465.94C680.901 1467.44 681.601 1468.84 682.301 1470.24C683.801 1473.24 685.201 1476.04 686.801 1478.84C688.401 1481.64 690.001 1484.34 691.601 1487.04C697.901 1497.34 705.001 1506.84 712.801 1515.54L714.601 1517.54L713.501 1519.24L715.201 1518.04L717.501 1520.44C718.501 1521.44 719.401 1522.44 720.401 1523.34C726.001 1528.94 732.001 1534.14 738.201 1538.84C739.201 1539.64 740.301 1540.44 741.301 1541.14C744.601 1543.54 748.301 1546.04 752.901 1548.84L753.901 1549.44C755.501 1550.44 757.201 1551.44 758.901 1552.44C760.301 1553.24 761.801 1554.04 763.201 1554.84C764.801 1555.64 766.501 1556.54 768.201 1557.44C769.801 1558.24 771.601 1559.04 773.301 1559.84C774.801 1560.54 776.301 1561.14 777.901 1561.84L783.701 1564.14C784.701 1564.54 785.301 1564.74 785.801 1564.94C786.901 1565.34 788.001 1565.74 789.001 1566.14L790.001 1566.54C791.601 1567.14 793.101 1567.64 794.701 1568.14L796.901 1568.84C797.601 1569.04 798.401 1569.34 799.101 1569.54C802.101 1570.44 805.201 1571.24 808.201 1572.04L809.001 1572.24C810.301 1572.54 811.601 1572.94 813.001 1573.24L817.401 1574.14C818.501 1574.34 819.601 1574.54 820.701 1574.74L822.601 1575.04C823.701 1575.24 824.701 1575.44 825.801 1575.64C827.601 1575.94 829.501 1576.24 831.301 1576.44L835.101 1576.94C836.001 1577.04 837.001 1577.24 837.901 1577.34L839.601 1577.54C840.801 1577.64 841.901 1577.84 843.101 1577.84L845.101 1578.04C846.601 1578.14 848.101 1578.34 849.701 1578.44L851.101 1578.54C852.401 1578.64 853.501 1578.74 854.601 1578.74L863.201 1579.04C876.601 1579.24 891.401 1578.74 906.601 1577.04C918.901 1575.74 931.901 1573.74 945.201 1571.04L948.901 1570.34C951.001 1569.94 953.001 1569.54 954.901 1569.24C960.601 1568.14 965.801 1567.64 970.701 1567.64Z" fill="black"/>
<path d="M1186.3 2536.84C1193.8 2551.64 1198.7 2568.14 1199.9 2585.14C1200.6 2593.64 1200.3 2602.24 1199.2 2610.84C1198.1 2619.24 1196.6 2627.34 1194.4 2635.54C1190 2651.84 1183.2 2667.94 1173.2 2682.54C1163.1 2697.04 1149.5 2709.74 1133.8 2718.74C1118.1 2727.74 1100.7 2733.04 1083.5 2735.34C1066.2 2737.84 1049 2737.54 1032.3 2735.94C1023.9 2734.94 1015.8 2733.74 1007.4 2732.04C998.901 2730.34 990.501 2728.04 982.301 2725.14C974.101 2722.24 966.001 2718.84 958.301 2714.74C950.601 2710.74 943.101 2706.14 936.101 2700.84C922.101 2690.34 909.501 2677.84 899.201 2663.34C888.901 2648.94 880.901 2632.84 876.401 2615.54C866.901 2581.14 871.401 2542.84 889.101 2512.24C906.401 2481.24 935.501 2458.84 967.201 2447.44C999.101 2436.04 1033.8 2434.84 1065.2 2443.54C1068.1 2444.34 1069.7 2447.34 1069 2450.14C1068.3 2452.74 1065.8 2454.34 1063.2 2454.04C1032.8 2450.84 1002.2 2455.44 975.801 2468.14C949.401 2480.54 927.501 2501.14 915.301 2526.14C903.201 2551.04 900.801 2580.14 909.101 2606.24C917.101 2632.34 934.501 2655.74 957.201 2672.04C968.601 2680.04 980.901 2686.94 994.201 2691.64C1000.8 2694.04 1007.6 2696.04 1014.5 2697.44C1021.5 2698.94 1029 2700.04 1036.2 2701.04C1050.7 2702.84 1065.3 2703.54 1079.2 2701.94C1093.2 2700.54 1106.5 2696.74 1118.6 2690.84C1142.7 2678.84 1160.4 2655.64 1170.2 2628.04C1172.6 2621.14 1174.9 2614.04 1176.6 2606.84C1178.3 2599.84 1179.3 2592.74 1179.6 2585.54C1180.4 2571.04 1178.4 2556.24 1174 2541.94V2541.84C1172.9 2538.34 1174.9 2534.54 1178.4 2533.54C1181.5 2532.54 1184.8 2534.04 1186.3 2536.84Z" fill="black"/>
<g opacity="0.35">
<g opacity="0.35">
<g opacity="0.35">
<g opacity="0.35">
<path opacity="0.35" d="M785.309 2312.11C846.856 2250.56 846.856 2150.78 785.31 2089.23C723.764 2027.68 623.978 2027.68 562.432 2089.23C500.886 2150.78 500.886 2250.56 562.432 2312.11C623.978 2373.65 723.763 2373.65 785.309 2312.11Z" fill="black"/>
</g>
</g>
</g>
</g>
<g opacity="0.4">
<g opacity="0.4">
<g opacity="0.4">
<g opacity="0.4">
<path opacity="0.4" d="M892.901 2138.14C927.701 2238.64 874.401 2348.44 773.901 2383.24C673.301 2418.04 563.601 2364.74 528.801 2264.24C528.101 2262.24 527.501 2260.24 526.801 2258.24C559.901 2331.84 644.301 2369.24 722.001 2342.34C804.301 2313.84 847.801 2224.14 819.401 2141.84C790.901 2059.54 701.201 2016.04 618.901 2044.44C596.501 2052.24 576.901 2064.54 560.901 2080.04C582.801 2052.84 612.301 2031.34 647.801 2019.04C748.301 1984.24 858.001 2037.54 892.901 2138.14Z" fill="white"/>
</g>
</g>
</g>
</g>
<path d="M554.001 2078.14C578.801 2049.84 614.501 2030.64 652.701 2024.74C691.001 2018.44 731.601 2026.04 766.001 2045.24C783.201 2054.94 798.601 2067.64 811.801 2082.54L816.601 2088.24C818.301 2090.14 819.801 2092.04 821.201 2094.14C824.001 2098.24 827.001 2102.24 829.701 2106.44L837.001 2119.44C839.401 2123.84 841.201 2128.44 843.201 2133.04C850.501 2151.54 855.201 2171.04 856.301 2191.04C857.301 2210.94 855.201 2231.04 849.701 2250.24C844.401 2269.44 835.501 2287.64 824.101 2303.94C812.701 2320.24 798.701 2334.74 782.701 2346.44C766.601 2358.04 748.501 2366.74 729.701 2372.64C710.901 2378.74 691.001 2380.94 671.501 2380.14C651.901 2379.34 632.501 2375.64 614.401 2368.44C596.401 2361.14 579.601 2351.14 565.001 2338.64C535.501 2313.94 516.001 2278.74 509.101 2242.24C508.501 2239.34 510.501 2236.54 513.401 2235.94C516.101 2235.44 518.601 2236.94 519.501 2239.44V2239.54C530.901 2272.44 551.201 2301.74 578.901 2320.94C592.501 2330.64 607.501 2338.34 623.301 2343.44C639.101 2348.34 655.601 2350.74 671.901 2350.44C680.101 2350.54 688.201 2349.34 696.301 2348.24L708.201 2345.54C712.201 2344.74 716.001 2343.14 719.901 2341.94C735.201 2336.64 749.701 2329.04 762.501 2319.14C787.601 2299.14 807.301 2271.64 815.401 2240.44C819.501 2224.94 821.501 2208.94 820.801 2192.94C820.101 2176.94 816.301 2161.04 810.601 2146.04C799.601 2115.74 777.301 2090.24 750.101 2072.54C736.301 2063.84 721.001 2057.64 705.101 2053.64C689.201 2049.64 672.501 2047.94 656.001 2049.54C622.701 2051.64 590.001 2065.34 563.601 2087.54C560.801 2089.94 556.601 2089.54 554.201 2086.74C551.701 2084.34 551.801 2080.64 554.001 2078.14Z" fill="black"/>
<g opacity="0.35">
<g opacity="0.35">
<g opacity="0.35">
<g opacity="0.35">
<path opacity="0.35" d="M1188.7 2086.14C1238.9 2086.14 1279.6 2045.44 1279.6 1995.24C1279.6 1945.04 1238.9 1904.34 1188.7 1904.34C1138.5 1904.34 1097.8 1945.04 1097.8 1995.24C1097.8 2045.44 1138.5 2086.14 1188.7 2086.14Z" fill="black"/>
</g>
</g>
</g>
</g>
<g opacity="0.4">
<g opacity="0.4">
<g opacity="0.4">
<g opacity="0.4">
<path opacity="0.4" d="M1314.6 1957.84C1335.3 2015.64 1305.3 2079.24 1247.5 2099.94C1189.7 2120.64 1126.1 2090.64 1105.4 2032.84C1105 2031.64 1104.6 2030.54 1104.2 2029.44C1123.8 2071.64 1172.7 2092.74 1217.3 2076.74C1264.6 2059.84 1289.1 2007.74 1272.2 1960.44C1255.3 1913.14 1203.2 1888.64 1155.9 1905.54C1143 1910.14 1131.8 1917.44 1122.7 1926.44C1135.2 1910.64 1152.1 1898.04 1172.4 1890.74C1230.2 1869.94 1293.9 1900.04 1314.6 1957.84Z" fill="white"/>
</g>
</g>
</g>
</g>
<path d="M1117.3 1923.84C1131.2 1906.44 1152.1 1894.24 1174.9 1890.04C1197.7 1885.64 1222.4 1889.54 1243.4 1900.74C1253.9 1906.34 1263.4 1913.94 1271.5 1922.74C1279.6 1931.54 1286.4 1941.84 1291 1952.94C1295.6 1964.14 1298.7 1975.94 1299.5 1988.04C1300.2 2000.14 1299.1 2012.34 1295.8 2024.04C1292.6 2035.74 1287.4 2046.84 1280.5 2056.74C1273.7 2066.64 1265.3 2075.54 1255.6 2082.64C1236 2096.64 1212.1 2104.44 1188.4 2103.24C1176.6 2102.74 1164.9 2100.54 1154 2096.14C1143.2 2091.74 1133.2 2085.64 1124.5 2078.14C1107 2063.24 1095.7 2042.14 1092.2 2020.54C1091.8 2017.94 1093.6 2015.44 1096.2 2015.04C1098.4 2014.64 1100.6 2015.94 1101.4 2017.94L1101.5 2018.14C1109 2036.54 1121 2052.34 1136.8 2062.44C1144.6 2067.54 1153 2071.54 1161.8 2074.04C1170.6 2076.34 1179.6 2077.44 1188.6 2077.04C1197.5 2076.74 1206.3 2074.84 1214.6 2071.64C1222.9 2068.54 1230.6 2064.24 1237.4 2058.74C1250.7 2047.64 1261.2 2032.64 1265.2 2015.74C1267.3 2007.34 1268.3 1998.74 1267.8 1990.14C1267.3 1981.54 1265.3 1972.94 1262.2 1964.94C1256.3 1948.54 1244.2 1934.94 1229.5 1925.14C1222 1920.34 1213.7 1916.94 1205 1914.64C1196.3 1912.34 1187.2 1911.24 1178 1912.04C1159.5 1912.84 1141.3 1920.14 1125.9 1932.14H1125.8C1123.2 1934.14 1119.5 1933.74 1117.4 1931.14C1115.5 1929.04 1115.6 1925.94 1117.3 1923.84Z" fill="black"/>
<path d="M1572.2 2301.84C1588 2303.34 1603.8 2308.04 1618.1 2316.14C1632.4 2324.14 1644.9 2335.64 1654.7 2349.24C1664.3 2362.94 1671.1 2378.64 1674.7 2394.94C1678.3 2411.34 1678.7 2428.24 1676.5 2444.64C1674.4 2461.14 1669.7 2477.14 1663 2492.24C1656.1 2507.24 1647.1 2521.24 1636.8 2534.04C1626.1 2546.44 1614.1 2557.94 1600.8 2567.64C1587.2 2577.04 1572.6 2585.04 1557 2590.84C1541.3 2596.44 1524.7 2599.94 1507.9 2600.64C1491.1 2601.34 1473.8 2599.54 1457.5 2593.94C1424.7 2583.34 1396.6 2558.14 1383.3 2526.74C1369.8 2495.34 1370.2 2460.34 1379.7 2429.74C1384.7 2414.44 1391.6 2400.04 1400.3 2386.84C1409.3 2373.84 1419.8 2362.14 1431.5 2352.04C1433.7 2350.14 1437.1 2350.34 1439.1 2352.54C1440.8 2354.54 1440.8 2357.44 1439.2 2359.44L1439.1 2359.64C1429.9 2371.04 1421.8 2382.94 1415.3 2395.64C1409.1 2408.54 1404.3 2421.74 1401.5 2435.44C1395.7 2462.64 1398.6 2490.94 1410.2 2514.14C1422.1 2537.34 1443.3 2554.14 1467.7 2561.44C1492.3 2568.74 1519.7 2566.14 1544.6 2557.14C1594.4 2538.64 1635.3 2492.54 1645.2 2439.84C1645.7 2436.54 1646.5 2433.24 1646.8 2429.94L1647.6 2419.94L1647.4 2410.04C1647.4 2406.74 1646.6 2403.54 1646.4 2400.14C1644.6 2387.04 1640.5 2374.34 1633.8 2362.84C1621 2339.44 1597.4 2322.34 1570 2314.84H1569.9C1566.3 2313.84 1564.2 2310.24 1565.2 2306.64C1566 2303.64 1569 2301.54 1572.2 2301.84Z" fill="black"/>
<g opacity="0.3">
<g opacity="0.3">
<g opacity="0.3">
<g opacity="0.3">
<path opacity="0.3" d="M1646.6 1977.44C1632.5 1994.44 1611.5 1997.14 1591.1 1987.44C1601.6 1989.64 1611.8 1988.04 1620.7 1982.14C1645.6 1965.44 1649.9 1920.64 1630.2 1881.94C1610.6 1843.24 1574.5 1825.44 1549.5 1842.14C1548 1843.14 1546.7 1844.24 1545.3 1845.34C1546.4 1843.64 1547.6 1841.94 1548.9 1840.44C1571.2 1813.54 1611.1 1822.34 1638.1 1860.24C1665.1 1898.04 1668.9 1950.54 1646.6 1977.44Z" fill="white"/>
</g>
</g>
</g>
<g opacity="0.3">
<g opacity="0.3">
<g opacity="0.3">
<path opacity="0.3" d="M1614.2 1995.04C1606.5 1995.04 1598.4 1993.14 1590.2 1989.24L1575.1 1982.04L1591.5 1985.54C1601.8 1987.74 1611.5 1985.94 1619.6 1980.54C1643.6 1964.44 1647.6 1920.64 1628.4 1882.94C1617 1860.44 1599.2 1844.14 1580.9 1839.34C1569.8 1836.44 1559.4 1838.04 1550.6 1843.84C1549.3 1844.74 1548 1845.74 1546.7 1846.94L1535.8 1856.64L1543.7 1844.34C1544.9 1842.54 1546.1 1840.84 1547.4 1839.24C1556.7 1828.04 1568.9 1822.44 1583.1 1822.94C1603.3 1823.64 1623.9 1836.84 1639.8 1859.14C1667.2 1897.64 1670.9 1951.34 1648.1 1978.84C1639.2 1989.54 1627.3 1995.04 1614.2 1995.04ZM1605 1990.04C1620.5 1993.14 1634.9 1988.34 1645 1976.14C1666.7 1949.94 1662.9 1898.44 1636.5 1861.34C1621.4 1840.14 1601.9 1827.54 1582.9 1826.84C1572.4 1826.44 1562.9 1829.84 1555.1 1836.74C1563.2 1833.34 1572.3 1832.84 1581.8 1835.34C1601.2 1840.44 1619.9 1857.44 1631.9 1880.94C1652 1920.44 1647.4 1966.54 1621.7 1983.74C1616.7 1987.24 1611 1989.34 1605 1990.04Z" fill="black"/>
</g>
</g>
</g>
</g>
<g opacity="0.35">
<g opacity="0.35">
<g opacity="0.35">
<g opacity="0.35">
<path opacity="0.35" d="M1613.47 1986.05C1641.06 1975.47 1650.77 1933.87 1635.16 1893.13C1619.54 1852.39 1584.51 1827.93 1556.92 1838.51C1529.33 1849.08 1519.62 1890.68 1535.24 1931.42C1550.85 1972.17 1585.88 1996.62 1613.47 1986.05Z" fill="black"/>
</g>
</g>
</g>
<g opacity="0.35">
<g opacity="0.35">
<g opacity="0.35">
<path opacity="0.35" d="M1600 1990.34C1596.2 1990.34 1592.3 1989.84 1588.3 1988.74C1568.9 1983.64 1550.2 1966.64 1538.2 1943.14C1518.1 1903.64 1522.7 1857.54 1548.4 1840.34C1558.1 1833.84 1569.7 1832.14 1581.9 1835.34C1601.3 1840.44 1620 1857.44 1632 1880.94C1652.1 1920.44 1647.5 1966.54 1621.8 1983.74C1615.3 1988.14 1607.9 1990.34 1600 1990.34ZM1570.3 1837.84C1563.2 1837.84 1556.5 1839.84 1550.7 1843.74C1526.6 1859.84 1522.7 1903.64 1541.9 1941.34C1553.3 1963.84 1571.1 1980.14 1589.4 1984.94C1600.5 1987.84 1610.9 1986.24 1619.7 1980.44C1643.8 1964.34 1647.7 1920.54 1628.5 1882.84C1617.1 1860.34 1599.3 1844.04 1581 1839.24C1577.3 1838.34 1573.7 1837.84 1570.3 1837.84Z" fill="black"/>
</g>
</g>
</g>
</g>
<g opacity="0.4">
<g opacity="0.4">
<g opacity="0.4">
<g opacity="0.4">
<path opacity="0.4" d="M1650 1978.44C1639.1 1985.74 1626.2 1987.14 1613.3 1983.44C1614 1983.04 1614.7 1982.64 1615.4 1982.14C1640.3 1965.44 1644.5 1920.64 1624.9 1881.94C1608.4 1849.54 1580.4 1831.74 1557.1 1836.64C1560.7 1830.84 1565.3 1825.94 1570.7 1822.34C1598.5 1803.84 1638.7 1823.64 1660.6 1866.74C1682.5 1909.84 1677.7 1959.84 1650 1978.44Z" fill="white"/>
</g>
</g>
</g>
</g>
<path d="M1552.6 1969.94C1540.8 1959.84 1531.9 1946.44 1525.9 1931.84C1520 1917.14 1516.6 1900.94 1518.1 1883.94C1518.8 1875.54 1520.7 1866.84 1524.5 1858.44C1528.3 1850.14 1534.2 1841.94 1542.4 1835.74C1550.6 1829.64 1561 1826.04 1571.2 1825.74C1581.4 1825.44 1591.1 1827.94 1599.3 1831.94C1615.8 1839.94 1628 1852.64 1636.8 1866.44C1645.8 1880.34 1651.3 1895.84 1653.8 1911.84C1656.3 1927.84 1655.4 1944.54 1649.6 1960.14C1646.6 1967.84 1642.3 1975.34 1636.2 1981.34C1630.2 1987.34 1622.3 1991.74 1614.1 1993.04C1611.5 1993.44 1609 1991.64 1608.6 1989.04C1608.3 1986.94 1609.3 1984.94 1611.1 1984.04L1611.3 1983.94C1622.6 1977.94 1628.5 1966.64 1630.5 1954.54C1632.7 1942.34 1631.3 1929.44 1628.1 1917.24C1624.5 1905.04 1619 1893.44 1611.8 1883.44C1604.6 1873.54 1595.4 1865.24 1585.9 1860.84C1576.2 1856.44 1567.5 1856.64 1560.7 1861.24C1553.7 1865.74 1548.2 1875.84 1546.1 1887.54C1545.1 1893.34 1544.4 1899.54 1544.7 1905.84C1544.9 1912.14 1545.5 1918.64 1547.1 1924.94C1549.6 1937.84 1554.7 1950.34 1561.6 1962.14L1561.7 1962.34C1563.4 1965.24 1562.4 1968.84 1559.6 1970.54C1557.2 1971.84 1554.5 1971.54 1552.6 1969.94Z" fill="black"/>
<path d="M605.601 1810.84C600.401 1790.24 624.101 1752.44 664.101 1733.64C704.001 1714.84 741.201 1723.44 750.301 1742.74L605.601 1810.84Z" fill="#D1D1D1"/>
<path d="M600.501 1812.14C598.401 1807.34 597.901 1802.14 598.101 1797.34C598.301 1792.44 599.401 1787.74 600.701 1783.24C603.601 1774.34 607.901 1766.14 613.201 1758.74C623.801 1743.84 638.001 1731.84 654.201 1723.44C670.301 1715.04 688.701 1710.04 707.601 1711.14C717.001 1711.64 726.501 1713.74 735.401 1718.14C739.801 1720.44 744.001 1723.34 747.601 1726.94C751.201 1730.64 754.201 1735.14 755.601 1740.24C756.501 1743.34 754.601 1746.64 751.501 1747.54C749.301 1748.14 747.001 1747.44 745.501 1745.84L745.001 1745.24C740.801 1740.54 734.901 1737.84 728.301 1736.34C721.801 1734.84 714.701 1734.64 707.701 1735.14C693.601 1736.44 679.601 1740.84 666.601 1747.44C653.501 1754.04 641.501 1762.84 631.101 1773.34C626.001 1778.64 621.301 1784.34 617.601 1790.44C613.801 1796.54 611.101 1803.14 610.801 1809.44V1810.14C610.701 1813.14 608.201 1815.44 605.201 1815.24C603.001 1815.34 601.301 1813.94 600.501 1812.14Z" fill="black"/>
<g opacity="0.35">
<g opacity="0.35">
<g opacity="0.35">
<g opacity="0.35">
<path opacity="0.35" d="M698.349 1815.28C740.276 1792.04 765.061 1756.6 753.709 1736.12C742.356 1715.64 699.165 1717.88 657.238 1741.12C615.311 1764.36 590.526 1799.8 601.878 1820.28C613.231 1840.76 656.422 1838.53 698.349 1815.28Z" fill="black"/>
</g>
</g>
</g>
</g>
<path d="M868.702 775.741C868.702 775.741 704.602 738.541 652.402 765.441C567.402 809.341 462.502 1103.74 468.002 1234.24C470.602 1295.74 649.202 1341.84 649.202 1341.84L868.702 775.741Z" fill="white"/>
<path d="M648.801 1343.74C641.401 1341.84 468.701 1296.54 466.101 1234.24C460.501 1101.44 566.801 807.441 651.601 763.641C703.801 736.641 862.501 772.241 869.301 773.741L868.401 777.641C866.801 777.241 704.401 740.941 653.501 767.241C569.601 810.541 464.601 1102.24 470.201 1234.14C472.701 1293.44 648.201 1339.44 650.001 1339.94L648.801 1343.74Z" fill="black"/>
<g opacity="0.35">
<g opacity="0.35">
<g opacity="0.35">
<g opacity="0.35">
<path opacity="0.35" d="M702.401 1204.74L649.201 1341.84C649.201 1341.84 470.601 1295.74 468.001 1234.24C463.301 1123.44 538.301 894.341 613.101 800.941C569.601 904.241 520.201 1019.44 540.901 1102.74C552.601 1150.14 655.901 1190.64 702.401 1204.74Z" fill="black"/>
</g>
</g>
</g>
</g>
<path d="M649.301 1355.44C648.201 1355.44 647.001 1355.34 645.901 1355.04C614.401 1346.94 457.401 1302.94 454.501 1234.84C449.101 1108.04 550.701 802.841 646.201 753.441C701.201 725.041 854.401 758.641 871.701 762.541C879.001 764.241 883.601 771.441 881.901 778.741C880.201 786.041 873.001 790.641 865.701 788.941C821.401 778.941 697.801 757.241 658.601 777.541C579.401 818.441 476.201 1107.64 481.501 1233.64C483.001 1269.14 582.401 1310.54 652.601 1328.64C659.901 1330.54 664.201 1337.94 662.401 1345.14C660.801 1351.34 655.301 1355.44 649.301 1355.44Z" fill="black"/>
<path d="M807.801 870.441C805.101 870.441 802.401 869.541 800.201 867.741C694.801 781.141 633.501 793.241 632.901 793.341C626.501 794.741 620.001 790.641 618.601 784.141C617.201 777.641 621.301 771.241 627.801 769.841C630.701 769.241 701.201 755.141 815.501 849.141C820.601 853.341 821.401 860.941 817.101 866.041C814.701 868.941 811.301 870.441 807.801 870.441Z" fill="black"/>
<g opacity="0.35">
<g opacity="0.35">
<g opacity="0.35">
<g opacity="0.35">
<path opacity="0.35" d="M1002.8 1331.74H1222.8L1189.7 1191.34L967.401 1147.14L1002.8 1331.74Z" fill="black"/>
</g>
</g>
</g>
</g>
<g opacity="0.35">
<g opacity="0.35">
<g opacity="0.35">
<g opacity="0.35">
<path opacity="0.35" d="M1345.4 1451.24C1343.9 1425.44 1318.4 1395.04 1274.1 1403.54L1150.8 1383.74L1230.4 1477.74C1249.1 1480.54 1266.4 1483.14 1281.7 1485.24L1282.9 1492.94C1282.9 1492.94 1282.3 1500.74 1281.1 1607.64C1280.1 1695.64 1411.6 1735.34 1465.3 1631.54C1466.7 1628.74 1468.1 1625.94 1469.5 1623.14L1481.8 1595.54C1349.7 1648.14 1350.9 1543.14 1345.4 1451.24Z" fill="black"/>
</g>
</g>
</g>
</g>
<g opacity="0.35">
<g opacity="0.35">
<g opacity="0.35">
<g opacity="0.35">
<path opacity="0.35" d="M1249.5 1640.34C1232.1 1745.84 1089.2 1755.84 1054.7 1681.74C1018.7 1604.34 1016.4 1557.94 949.201 1572.04C774.001 1608.84 677.201 1527.54 654.001 1386.04C671.101 1421.84 709.001 1476.24 783.601 1487.14C896.601 1503.64 1047.7 1447.74 1068.3 1516.64C1088.9 1585.44 1109 1632.84 1155.6 1635.34C1202.4 1637.84 1239.8 1615.04 1251.3 1560.54C1252 1578.84 1252.8 1620.74 1249.5 1640.34Z" fill="black"/>
</g>
</g>
</g>
</g>
<path d="M1013 1603.64C1012.5 1603.64 1011.9 1603.64 1011.4 1603.54C1004.8 1602.64 1000.2 1596.64 1001.1 1590.04C1001.3 1588.34 1007 1548.24 1036.2 1511.04C1063.2 1476.54 1115.9 1438.24 1213.7 1451.54C1220.3 1452.44 1224.9 1458.44 1224 1465.04C1223.1 1471.64 1217.1 1476.24 1210.5 1475.34C1141.1 1465.84 1088.8 1482.84 1055.1 1525.84C1029.9 1557.94 1025 1592.84 1024.9 1593.24C1024.1 1599.34 1018.9 1603.64 1013 1603.64Z" fill="black"/>
<path d="M1232.5 1397.14C1168.2 1390.04 1153.6 1359.84 1161.2 1332.94C1166.2 1315.14 1181.1 1298.84 1197.6 1291.54L1265.3 1141.44L1325.8 1007.14L1349 955.641C1349 955.641 1361.3 963.241 1377.6 981.141C1401.7 1007.64 1434.5 1056.54 1449.2 1136.54C1475.3 1279.24 1335.1 1408.54 1232.5 1397.14Z" fill="white"/>
<g opacity="0.35">
<g opacity="0.35">
<g opacity="0.35">
<g opacity="0.35">
<path opacity="0.35" d="M1377.7 981.241C1361.4 963.341 1349.1 955.741 1349.1 955.741L1343.5 968.041C1323.7 979.841 1222.7 974.141 1222.7 974.141C1053.2 970.341 916.501 845.941 878.901 808.241L875.201 784.741C868.401 791.141 861.501 797.841 854.801 804.741C861.701 829.341 873.501 853.341 889.501 875.841C934.501 938.941 1012.6 991.041 1108.3 1013.94C1198.7 1035.64 1286.9 1027.04 1354.3 995.841C1354.2 995.341 1370.8 985.341 1377.7 981.241Z" fill="black"/>
</g>
</g>
</g>
</g>
<g opacity="0.35">
<g opacity="0.35">
<g opacity="0.35">
<g opacity="0.35">
<path opacity="0.35" d="M1308.3 1318.94C1228.3 1362.34 1177.9 1341.04 1161.3 1332.94C1166.3 1315.14 1181.2 1298.84 1197.7 1291.54L1265.4 1141.44C1290.6 1135.14 1315.3 1131.64 1332.4 1135.64C1382.7 1147.24 1421.9 1257.34 1308.3 1318.94Z" fill="black"/>
</g>
</g>
</g>
</g>
<path d="M1245.3 1411.44C1240.5 1411.44 1235.7 1411.14 1230.9 1410.64C1163.7 1403.14 1149.1 1371.84 1146.3 1353.84C1141.4 1321.74 1165.8 1290.64 1192.1 1279.14C1199 1276.14 1207 1279.24 1210 1286.14C1213 1293.04 1209.9 1301.04 1203 1304.04C1186.7 1311.24 1170.4 1331.74 1173.1 1349.84C1175.8 1367.64 1197.4 1379.74 1233.8 1383.74C1278.7 1388.74 1335.1 1362.54 1377.4 1317.14C1425.6 1265.34 1446.9 1200.54 1435.6 1139.14C1412.6 1013.44 1342.3 967.741 1341.6 967.241C1335.3 963.241 1333.4 954.841 1337.3 948.541C1341.3 942.241 1349.6 940.241 1355.9 944.241C1359.2 946.241 1436.9 995.941 1462.2 1134.24C1475 1204.14 1451.3 1277.54 1397.1 1335.64C1353 1383.34 1296 1411.44 1245.3 1411.44Z" fill="black"/>
<path d="M1638.4 730.641C1602.7 797.341 1550.2 855.341 1483.6 897.741C1470 906.341 1455.9 914.341 1441.2 921.641C1434.1 925.241 1426.8 928.541 1419.3 931.841C1396.9 941.541 1374.1 949.241 1351.1 955.141C1331.3 960.241 1311.4 963.841 1291.5 966.141C1267.5 968.941 1243.4 969.741 1219.6 968.641C1210.9 968.241 1202.3 967.541 1193.7 966.741C1036.2 950.441 891.901 851.841 824.501 696.141C725.301 466.841 830.801 200.441 1060.1 101.241C1104.3 82.1411 1149.9 70.641 1195.3 66.141C1200.6 65.541 1206 65.141 1211.3 64.841C1225.6 63.941 1239.9 63.741 1254 64.141C1286.8 65.241 1319.2 69.841 1350.7 77.841C1382.1 85.841 1412.7 97.141 1441.6 111.541C1450.8 116.141 1459.9 121.041 1468.8 126.241C1482.1 134.041 1495.1 142.541 1507.7 151.841C1570.3 197.741 1621.9 260.341 1654.9 336.741C1712.1 469.041 1701.4 613.141 1638.4 730.641Z" fill="white"/>
<path d="M1239.7 971.241C1233 971.241 1226.2 971.041 1219.5 970.741C1210.8 970.341 1202 969.641 1193.5 968.841C1029.9 951.941 887.901 847.741 822.701 697.041C723.201 467.041 829.401 199.041 1059.4 99.541C1103 80.741 1148.7 68.841 1195.2 64.341C1200.2 63.841 1205.7 63.341 1211.3 63.041C1225.6 62.141 1240 61.941 1254.2 62.341C1286.8 63.441 1319.5 68.041 1351.3 76.141C1382.8 84.141 1413.5 95.541 1442.6 110.041C1452 114.741 1461.1 119.641 1469.9 124.841C1483.6 132.841 1496.7 141.541 1508.9 150.541C1573.6 197.941 1624.8 262.241 1656.8 336.341C1712.2 464.441 1706.1 608.541 1640.1 731.741C1603.5 800.041 1549.7 858.041 1484.6 899.641C1470.8 908.441 1456.5 916.541 1442.1 923.641C1435.5 926.941 1428.3 930.341 1420.1 933.841C1397.9 943.441 1374.8 951.341 1351.6 957.241C1332.1 962.241 1312 965.941 1291.7 968.341C1274.6 970.241 1257.2 971.241 1239.7 971.241ZM1239.9 66.141C1230.4 66.141 1220.9 66.441 1211.5 67.041C1205.9 67.341 1200.6 67.741 1195.6 68.341C1149.5 72.841 1104.2 84.541 1061 103.241C833.101 201.841 727.801 467.541 826.401 695.441C891.001 844.841 1031.8 948.041 1193.9 964.841C1202.4 965.741 1211.1 966.341 1219.7 966.741C1243.7 967.841 1267.7 966.941 1291.3 964.241C1311.4 961.941 1331.4 958.241 1350.7 953.241C1373.7 947.341 1396.6 939.541 1418.6 930.041C1426.7 926.441 1433.8 923.141 1440.4 919.841C1454.7 912.741 1468.9 904.741 1482.6 896.041C1547.1 854.841 1600.4 797.341 1636.7 729.641L1638.5 730.541L1636.7 729.641C1702.1 607.541 1708.2 464.741 1653.2 337.741C1621.5 264.341 1570.8 200.641 1506.6 153.641C1494.5 144.741 1481.4 136.141 1467.9 128.141C1459.2 123.041 1450.1 118.141 1440.8 113.541C1412 99.141 1381.5 87.8409 1350.3 79.9409C1318.8 71.9409 1286.4 67.341 1254.1 66.241C1249.4 66.241 1244.7 66.141 1239.9 66.141Z" fill="black"/>
<g opacity="0.35">
<g opacity="0.35">
<g opacity="0.35">
<g opacity="0.35">
<path opacity="0.35" d="M1638.4 730.641C1602.7 797.341 1550.2 855.341 1483.6 897.741C1470 906.341 1455.9 914.341 1441.2 921.641C1434.1 925.241 1426.8 928.541 1419.3 931.841C1396.9 941.541 1374.1 949.241 1351.1 955.141C1331.3 960.241 1311.4 963.841 1291.5 966.141C1267.5 968.941 1243.4 969.741 1219.6 968.641C1210.9 968.241 1202.3 967.541 1193.7 966.741C1036.2 950.441 891.901 851.841 824.501 696.141C788.601 613.041 779.501 525.041 793.501 441.841C799.501 477.041 809.701 512.141 824.501 546.441C849.701 604.841 894.001 627.841 937.501 668.841C1010.1 737.141 1095.2 806.841 1193.6 817.041C1202.2 817.941 1210.9 818.541 1219.5 818.941C1243.3 820.041 1267.4 819.241 1291.4 816.441C1311.3 814.141 1331.3 810.441 1351 805.441C1374 799.641 1396.8 791.841 1419.2 782.141C1426.6 778.841 1434 775.541 1441.1 771.941C1455.8 764.641 1469.9 756.641 1483.5 748.041C1550.1 705.641 1602.6 647.541 1638.3 580.941C1661.6 537.441 1677.7 490.341 1685.9 441.541C1703 542.041 1685 643.641 1638.4 730.641Z" fill="black"/>
</g>
</g>
</g>
<g opacity="0.35">
<g opacity="0.35">
<g opacity="0.35">
<path opacity="0.35" d="M1239.8 971.241C1233.1 971.241 1226.3 971.141 1219.6 970.741C1211 970.341 1202.2 969.641 1193.6 968.841C1030 951.941 888.001 847.741 822.801 697.041C787.901 616.341 777.101 528.041 791.601 441.641L793.601 429.941L795.601 441.641C801.601 477.341 812.001 512.341 826.501 545.841C844.801 588.241 873.801 612.141 904.401 637.541C915.701 646.941 927.401 656.641 939.101 667.541C1014.2 738.341 1097.1 805.141 1194.1 815.241C1202.6 816.141 1211.3 816.741 1219.9 817.141C1243.9 818.241 1267.9 817.341 1291.5 814.641C1311.6 812.341 1331.6 808.641 1350.9 803.641C1373.9 797.741 1396.8 789.941 1418.8 780.441C1426.9 776.841 1434 773.541 1440.6 770.241C1454.9 763.141 1469.1 755.141 1482.8 746.441C1547.3 705.241 1600.6 647.741 1636.9 580.041C1660.2 536.441 1676.2 489.741 1684.3 441.241L1686.3 429.541L1688.3 441.241C1705 539.841 1688 642.941 1640.5 731.541C1603.9 799.841 1550.1 857.841 1485 899.441C1471.2 908.241 1456.9 916.341 1442.5 923.441C1435.9 926.741 1428.7 930.141 1420.5 933.641C1398.3 943.241 1375.2 951.141 1352 957.041C1332.5 962.041 1312.4 965.741 1292.1 968.141C1274.6 970.241 1257.2 971.241 1239.8 971.241ZM793.701 454.041C782.101 535.841 793.401 619.141 826.401 695.441C891.001 844.841 1031.8 948.041 1193.9 964.841C1202.5 965.741 1211.2 966.341 1219.7 966.741C1243.7 967.841 1267.7 966.941 1291.3 964.241C1311.4 961.941 1331.4 958.241 1350.7 953.241C1373.7 947.341 1396.6 939.541 1418.6 930.041C1426.7 926.441 1433.8 923.141 1440.4 919.841C1454.7 912.741 1468.9 904.741 1482.6 896.041C1547.1 854.841 1600.4 797.341 1636.7 729.641C1681.9 645.241 1699.2 547.741 1685.9 453.541C1677.2 498.341 1661.8 541.441 1640.2 581.841C1603.6 650.141 1549.8 708.141 1484.7 749.741C1470.9 758.541 1456.6 766.641 1442.2 773.741C1435.6 777.041 1428.4 780.341 1420.2 783.941C1398 793.541 1374.9 801.441 1351.7 807.341C1332.2 812.341 1312.1 816.041 1291.8 818.441C1268.1 821.241 1243.8 822.041 1219.6 821.041C1210.9 820.641 1202.2 819.941 1193.6 819.141C1095.5 808.941 1012 741.641 936.301 670.441C924.701 659.541 913.101 649.941 901.801 640.541C870.801 614.841 841.501 590.641 822.801 547.341C809.701 517.341 799.901 485.941 793.701 454.041Z" fill="black"/>
</g>
</g>
</g>
</g>
<path d="M1239.7 982.841C1232.8 982.841 1225.9 982.641 1219 982.341C1210.1 981.941 1201.1 981.241 1192.3 980.341C1024.6 962.941 878.901 856.141 812.101 701.641C710.101 465.841 819.001 190.941 1054.8 88.9409C1099.6 69.6409 1146.4 57.441 1194.1 52.841C1199.2 52.341 1204.8 51.841 1210.7 51.541C1225.3 50.641 1240.1 50.341 1254.6 50.841C1288.1 51.941 1321.6 56.6409 1354.2 64.9409C1386.5 73.1409 1418 84.841 1447.8 99.741C1457.4 104.541 1466.8 109.641 1475.8 114.941C1489.8 123.141 1503.3 132.041 1515.8 141.341C1582.2 189.941 1634.6 255.841 1667.5 331.841C1724.3 463.141 1718.1 610.941 1650.4 737.241C1612.9 807.241 1557.7 866.841 1490.9 909.441C1476.8 918.441 1462.1 926.741 1447.3 934.041C1440.6 937.441 1433.2 940.841 1424.8 944.541C1401.9 954.441 1378.3 962.541 1354.5 968.541C1334.6 973.641 1313.9 977.441 1293.1 979.941C1275.5 981.741 1257.6 982.841 1239.7 982.841ZM1239.9 77.741C1230.7 77.741 1221.4 78.0409 1212.2 78.6409C1206.7 78.9409 1201.6 79.341 1196.8 79.841C1151.8 84.241 1107.7 95.641 1065.5 113.841C843.401 209.941 740.901 468.741 836.901 690.841C899.801 836.441 1037 936.941 1195 953.341C1203.3 954.141 1211.8 954.841 1220.2 955.241C1243.5 956.241 1266.9 955.441 1289.9 952.741C1309.5 950.441 1329 946.841 1347.7 942.041C1370.2 936.341 1392.4 928.741 1413.9 919.441C1421.8 915.941 1428.7 912.741 1435.1 909.541C1449.1 902.641 1462.9 894.741 1476.2 886.341C1539.1 846.241 1591 790.241 1626.3 724.241C1690 605.241 1695.9 466.141 1642.4 342.441C1611.5 270.941 1562.1 208.841 1499.6 163.041C1487.8 154.341 1475.1 145.941 1461.9 138.241C1453.5 133.241 1444.6 128.441 1435.5 123.941C1407.4 109.941 1377.7 98.941 1347.3 91.241C1316.6 83.441 1285 78.9409 1253.5 77.9409C1249.1 77.7409 1244.5 77.741 1239.9 77.741Z" fill="black"/>
<path d="M1239.7 983.241C1232.8 983.241 1225.9 983.041 1218.9 982.741C1209.9 982.341 1201 981.641 1192.2 980.741C1024.3 963.341 878.501 856.441 811.601 701.741C709.501 465.741 818.501 190.641 1054.5 88.4408C1099.3 69.1408 1146.2 56.9409 1193.9 52.2409C1199 51.6409 1204.7 51.2408 1210.5 50.9408C1225.1 50.0408 1239.9 49.7409 1254.5 50.2409C1288 51.3409 1321.5 56.0408 1354.2 64.4408C1386.5 72.6408 1418.1 84.3409 1447.9 99.2409C1457.5 104.041 1466.9 109.141 1475.9 114.441C1489.9 122.641 1503.4 131.541 1516 140.841C1582.4 189.541 1634.9 255.441 1667.8 331.541C1724.7 462.941 1718.4 610.841 1650.7 737.341C1613.1 807.441 1557.9 867.041 1491.1 909.641C1477 918.641 1462.3 926.941 1447.4 934.341C1440.7 937.741 1433.3 941.141 1424.9 944.841C1402 954.741 1378.4 962.841 1354.5 968.841C1334.5 973.941 1313.8 977.841 1293 980.241C1275.5 982.241 1257.6 983.241 1239.7 983.241ZM1239.9 78.1408C1230.7 78.1408 1221.4 78.4409 1212.2 79.0409C1206.7 79.3409 1201.6 79.7409 1196.8 80.2409C1151.8 84.6409 1107.8 96.0409 1065.6 114.241C843.701 210.241 741.301 468.841 837.301 690.641C900.201 836.041 1037.2 936.541 1195 952.841C1203.3 953.641 1211.8 954.341 1220.2 954.741C1243.5 955.741 1266.9 954.941 1289.8 952.241C1309.4 949.941 1328.8 946.341 1347.6 941.541C1370.1 935.841 1392.3 928.241 1413.7 918.941C1421.6 915.441 1428.5 912.241 1434.9 909.041C1448.9 902.141 1462.7 894.341 1476 885.841C1538.8 845.841 1590.7 789.841 1626 723.941C1689.7 605.041 1695.6 466.041 1642.1 342.541C1611.2 271.041 1561.9 209.141 1499.4 163.341C1487.6 154.641 1474.9 146.241 1461.7 138.541C1453.3 133.541 1444.4 128.741 1435.4 124.241C1407.3 110.241 1377.7 99.2409 1347.3 91.5409C1316.6 83.7409 1285.1 79.2409 1253.6 78.2409C1249.1 78.2409 1244.5 78.1408 1239.9 78.1408Z" fill="black"/>
<path d="M1571 825.041C1306.8 1011.44 945.601 881.041 925.201 561.441C911.301 344.041 1113.4 162.441 1323.1 162.441C1475.7 162.441 1624.7 229.241 1689.5 466.041C1689.5 466.041 1702 575.341 1672.7 648.241C1643.4 721.141 1602.6 787.141 1602.6 787.141L1571 825.041Z" fill="black"/>
<path d="M1306.4 912.941C1245.3 912.941 1185.1 899.941 1129.8 873.541C1007.4 815.041 932.101 701.241 923.201 561.541C917.001 464.941 953.001 369.741 1024.7 293.441C1102.8 210.141 1214.4 160.441 1323.2 160.441C1512.2 160.441 1636.2 263.141 1691.5 465.541C1691.7 466.941 1703.7 576.441 1674.6 649.041C1645.6 721.341 1604.7 787.641 1604.3 788.241L1572.2 826.641C1491.4 883.641 1398 912.941 1306.4 912.941ZM1323.1 164.441C1215.4 164.441 1104.9 213.641 1027.5 296.141C956.701 371.641 921.001 465.841 927.101 561.241C936.001 699.441 1010.4 811.941 1131.5 869.841C1268.3 935.341 1436.2 917.541 1569.6 823.541L1600.9 785.941C1601.1 785.541 1641.8 719.441 1670.7 647.541C1699.5 575.941 1687.5 467.341 1687.4 466.341C1632.7 266.041 1510.1 164.441 1323.1 164.441Z" fill="black"/>
<g opacity="0.35">
<g opacity="0.35">
<g opacity="0.35">
<g opacity="0.35">
<path opacity="0.35" d="M1679 629.841C1677.2 636.141 1675.1 642.341 1672.7 648.241C1643.4 721.141 1602.5 787.141 1602.5 787.141L1571 824.941C1306.8 1011.34 945.701 880.941 925.201 561.341C923.901 540.741 924.501 520.341 926.901 500.541C1044.6 759.641 1393.4 840.841 1659.8 652.941L1679 629.841Z" fill="#111A28"/>
</g>
</g>
</g>
</g>
<path d="M1307.3 969.241C1196.3 969.241 1089.9 931.741 1010 863.441C923.301 789.241 873.401 686.141 865.701 565.241C858.601 454.041 900.001 344.341 982.301 256.541C1071.9 161.041 1200 103.941 1324.9 103.941C1395 103.941 1458.2 116.441 1512.7 141.141L1513.8 141.641L1514.8 142.341C1581 190.841 1633.2 256.441 1666 332.241C1722.6 463.141 1716.4 610.341 1649 736.241C1611.6 806.041 1556.6 865.341 1490.1 907.841C1476 916.841 1461.4 925.041 1446.6 932.441C1439.9 935.841 1432.5 939.241 1424.2 942.841C1401.4 952.641 1377.9 960.741 1354.1 966.741L1352.2 967.041C1337.2 968.541 1322.2 969.241 1307.3 969.241ZM1324.9 128.041C1206.5 128.041 1085 182.241 999.801 273.041C922.001 355.941 882.901 459.141 889.601 563.741C896.901 678.041 944.001 775.341 1025.6 845.241C1111.1 918.441 1229 954.141 1349.1 943.441C1371.3 937.741 1393.3 930.241 1414.6 921.041C1422.5 917.541 1429.5 914.341 1435.9 911.141C1449.9 904.141 1463.8 896.341 1477.2 887.841C1540.3 847.641 1592.4 791.341 1627.9 725.141C1691.9 605.741 1697.8 466.041 1644.1 341.941C1613.2 270.541 1564 208.541 1501.8 162.641C1450.6 139.641 1391.1 128.041 1324.9 128.041Z" fill="black"/>
<path d="M1306.4 924.441C1243.6 924.441 1181.7 911.041 1124.8 883.841C998.501 823.441 920.801 706.141 911.601 562.141C905.201 462.341 942.301 364.041 1016.2 285.341C1096.5 199.741 1211.2 148.741 1323.1 148.741C1518 148.741 1645.7 254.241 1702.6 462.341L1703 464.341C1703.5 468.941 1715.5 577.941 1685.3 653.141C1655.9 726.341 1615.8 791.441 1614.1 794.141L1613 795.641L1580.3 834.841L1578.8 835.841C1496 894.541 1400.3 924.441 1306.4 924.441ZM1323.1 176.041C1218.5 176.041 1111.2 223.941 1036 304.141C967.401 377.341 932.801 468.341 938.701 560.641C947.301 694.541 1019.4 803.541 1136.5 859.541C1269.1 922.941 1431.9 905.941 1561.7 815.041L1591.4 779.341C1596.1 771.741 1633.2 710.041 1660 643.341C1686.3 577.941 1677.2 479.641 1676.1 468.741C1622.7 274.441 1503.9 176.041 1323.1 176.041Z" fill="black"/>
<path d="M959.258 555.05C959.639 465.69 907.296 393.026 842.347 392.749C777.399 392.472 724.439 464.688 724.058 554.048C723.677 643.407 776.019 716.072 840.968 716.349C905.917 716.626 958.877 644.41 959.258 555.05Z" fill="white"/>
<path d="M841.601 729.941C838.101 729.941 834.601 729.741 831.101 729.441C759.401 722.041 705.401 637.741 710.901 541.641C714.101 485.841 736.101 436.641 771.301 406.641C795.501 386.041 823.501 376.741 852.201 379.741C923.901 387.141 977.901 471.441 972.401 567.541C969.201 623.341 947.201 672.541 912.001 702.541C890.801 720.541 866.601 729.941 841.601 729.941ZM841.901 406.341C823.301 406.341 805.101 413.541 788.901 427.341C759.801 452.141 740.701 495.441 738.001 543.241C733.401 625.041 776.401 696.541 833.901 702.441C855.101 704.641 876.101 697.541 894.401 681.841C923.501 657.041 942.601 613.741 945.301 565.941C949.901 484.141 906.901 412.641 849.401 406.741C846.901 406.441 844.401 406.341 841.901 406.341Z" fill="black"/>
<path d="M806.876 690.443C859.764 688.856 900.939 630.956 898.844 561.12C896.748 491.284 852.175 435.957 799.288 437.544C746.4 439.131 705.225 497.031 707.32 566.867C709.416 636.703 753.988 692.03 806.876 690.443Z" fill="white"/>
<path d="M804.601 692.541C793.301 692.541 781.901 689.941 771.101 684.841C742.801 671.341 720.801 642.241 710.801 604.941C692.801 537.941 719.401 464.941 770.001 442.141C790.901 432.741 814.001 433.041 834.901 443.041C863.201 456.541 885.201 485.641 895.201 522.941C913.201 589.941 886.601 662.941 836.001 685.741C825.901 690.241 815.201 692.541 804.601 692.541ZM801.401 439.441C791.401 439.441 781.401 441.641 771.601 445.941C722.701 467.841 697.201 538.741 714.701 603.841C724.401 639.941 745.601 668.141 772.801 681.041C792.901 690.641 814.201 690.941 834.301 681.941C883.201 660.041 908.701 589.141 891.201 524.041C881.501 487.941 860.301 459.741 833.101 446.841C822.701 441.941 812.101 439.441 801.401 439.441Z" fill="black"/>
<g opacity="0.35">
<g opacity="0.35">
<g opacity="0.35">
<g opacity="0.35">
<path opacity="0.35" d="M892.301 620.341C899.601 597.141 900.501 571.841 896.101 547.741C875.101 599.341 826.101 618.041 782.501 589.241C754.301 570.641 735.001 536.541 728.201 499.341C726.901 502.541 725.601 506.041 724.501 509.541C706.001 568.641 724.701 647.841 771.001 678.441C817.401 709.041 873.801 679.441 892.301 620.341Z" fill="black"/>
</g>
</g>
</g>
</g>
<path d="M802.601 706.441C799.901 706.441 797.201 706.241 794.501 705.941C738.601 699.741 698.101 632.041 702.401 551.941C704.901 504.941 723.201 462.541 751.401 438.641C769.401 423.341 790.101 416.541 811.101 418.941C867.001 425.141 907.501 492.841 903.201 572.941C900.701 619.941 882.401 662.341 854.201 686.241C838.501 699.541 820.801 706.441 802.601 706.441ZM803.001 442.541C790.401 442.541 778.001 447.441 766.801 457.041C743.601 476.741 728.401 512.741 726.301 553.241C722.901 618.441 755.301 677.441 797.101 682.141C811.501 683.741 825.801 678.841 838.601 667.941C861.801 648.241 877.001 612.241 879.101 571.741C882.501 506.541 850.101 447.541 808.301 442.841C806.601 442.641 804.801 442.541 803.001 442.541Z" fill="black"/>
<path d="M1321.1 1133.24C1319 1133.24 1316.8 1132.74 1314.8 1131.74C1308.2 1128.24 1305.6 1120.04 1309 1113.44C1311.6 1108.54 1373.7 991.141 1526.9 852.641C1667.8 725.141 1915.5 555.841 2295.5 473.041C2302.8 471.441 2310.1 476.041 2311.7 483.441C2313.3 490.741 2308.7 498.041 2301.3 499.641C1927.8 581.041 1684.5 747.041 1546.2 871.941C1396.2 1007.34 1333.8 1124.94 1333.1 1126.14C1330.7 1130.64 1326 1133.24 1321.1 1133.24Z" fill="black"/>
<path d="M1356.6 1219.54C1356.6 1219.54 1404.8 1252.14 1412.1 1295.74L1356.6 1219.54Z" fill="white"/>
<path d="M1412.1 1307.74C1406.3 1307.74 1401.3 1303.54 1400.3 1297.74C1394 1259.84 1350.4 1229.84 1349.9 1229.54C1344.4 1225.84 1343 1218.34 1346.7 1212.84C1350.4 1207.34 1357.9 1205.94 1363.3 1209.64C1365.4 1211.04 1415.9 1245.64 1423.9 1293.84C1425 1300.34 1420.6 1306.54 1414 1307.64C1413.4 1307.64 1412.7 1307.74 1412.1 1307.74Z" fill="black"/>
<path d="M2481.3 2203.94C2479.4 2203.94 2477.4 2203.34 2475.7 2202.24C2314.7 2092.14 2316.7 1968.74 2346.7 1884.64C2350.3 1874.54 2354.7 1863.94 2359.3 1852.64C2399.6 1755.14 2460.4 1607.94 2199.2 1331.44C1970.5 1089.34 2124.6 726.541 2211.5 566.641C2170.9 600.641 2106.6 628.241 2004.5 599.041C1998.8 597.441 1992.9 599.941 1990.7 605.141C1929.3 746.541 1821.6 729.441 1778.2 715.441C1774.6 714.241 1770 714.941 1767.1 717.141C1764.7 718.841 1764.7 720.641 1764.7 721.141C1763.9 808.941 1729.4 851.241 1700.6 871.141C1653 904.141 1591.7 899.741 1550.1 884.541C1547.8 883.741 1545.6 884.741 1544.2 885.741C1541.1 887.941 1539.2 891.841 1539.3 895.341C1542.4 979.941 1522.4 1040.34 1479.7 1075.04C1422.3 1121.74 1346.2 1103.64 1343 1102.84C1337.6 1101.54 1334.4 1096.14 1335.7 1090.74C1337 1085.34 1342.4 1082.14 1347.8 1083.44C1348.5 1083.64 1417.7 1099.94 1467.2 1059.44C1504.7 1028.84 1522.2 973.941 1519.3 896.041C1518.9 885.841 1523.9 875.641 1532.4 869.541C1539.8 864.141 1548.8 862.741 1556.9 865.741C1593.7 879.141 1647.8 883.341 1689.1 854.641C1725.4 829.541 1744 784.541 1744.6 720.841C1744.7 712.841 1748.5 705.741 1755.3 700.741C1763.5 694.841 1774.6 693.141 1784.3 696.241C1831.8 711.541 1919.4 718.841 1972.4 596.941C1978.7 582.441 1994.5 575.141 2010.1 579.641C2155.6 621.341 2215.1 539.941 2243.6 500.841L2246.4 497.041C2250.3 491.741 2257.5 490.541 2263 494.341C2268.8 498.341 2270.5 505.941 2266.8 511.741C2212.3 597.941 1953.5 1041.84 2213.9 1317.54C2332.5 1443.14 2397.5 1554.34 2412.4 1657.44C2425.2 1745.64 2399 1809.14 2377.9 1860.14C2373.4 1871.14 2369.1 1881.54 2365.6 1891.24C2325.4 2003.94 2366.2 2102.94 2487 2185.54C2491.6 2188.64 2492.7 2194.84 2489.6 2199.44C2487.6 2202.44 2484.5 2203.94 2481.3 2203.94Z" fill="black"/>
<g opacity="0.35">
<g opacity="0.35">
<g opacity="0.35">
<g opacity="0.35">
<path opacity="0.35" d="M941.601 1354.84C783.001 1356.14 690.801 1284.24 651.901 1244.24C654.401 1220.74 658.201 1196.34 663.401 1171.24C702.101 1219.14 789.101 1288.54 923.701 1311.44L922.801 1278.64C929.901 1279.04 932.201 1277.54 939.301 1277.34L941.601 1354.84Z" fill="black"/>
</g>
</g>
</g>
</g>
<path d="M932.301 1225.64L935.201 1365.94C935.401 1373.24 940.101 1379.44 945.801 1379.64L996.601 1381.34C1000.9 1381.44 1004.2 1377.14 1004.1 1371.64L1001.5 1258.14C1001.5 1258.14 960.501 1237.74 931.701 1203.34C929.201 1200.34 932.201 1221.14 932.301 1225.64Z" fill="white"/>
<path d="M996.801 1383.34C996.701 1383.34 996.601 1383.34 996.501 1383.34L945.701 1381.64C939.001 1381.44 933.301 1374.34 933.201 1365.94L930.301 1225.64C930.301 1224.44 930.001 1221.94 929.701 1218.94C928.201 1204.44 928.301 1202.14 930.501 1201.24C930.901 1201.04 932.201 1200.64 933.401 1202.14C961.601 1235.84 1002.1 1256.24 1002.5 1256.44L1003.6 1256.94L1006.2 1371.64C1006.3 1375.34 1005 1378.74 1002.8 1380.94C1001.1 1382.54 999.001 1383.34 996.801 1383.34ZM932.801 1207.64C932.901 1210.94 933.401 1215.64 933.701 1218.64C934.001 1221.64 934.301 1224.34 934.301 1225.64L937.201 1365.94C937.301 1372.14 941.301 1377.54 945.901 1377.74L996.701 1379.44C998.201 1379.44 999.301 1378.74 999.901 1378.14C1001.4 1376.74 1002.2 1374.34 1002.1 1371.84L999.601 1259.54C993.101 1256.04 958.701 1237.14 932.801 1207.64Z" fill="black"/>
<g opacity="0.35">
<g opacity="0.35">
<g opacity="0.35">
<g opacity="0.35">
<path opacity="0.35" d="M1001.6 1331.74C1001.6 1331.74 957.601 1318.94 928.901 1285.44L932.301 1236.54C932.201 1232.04 929.201 1211.24 931.801 1214.34C960.601 1248.74 1001.6 1269.14 1001.6 1269.14V1331.74Z" fill="black"/>
</g>
</g>
</g>
</g>
<path d="M1308.3 1027.64C1308.3 1027.64 1302 1088.14 1301.4 1109.04L1308.3 1027.64Z" fill="white"/>
<path d="M1313.1 1028.14L1313.5 1069.14L1314 1089.54C1314.2 1096.24 1314.5 1103.14 1315 1109.44C1315.6 1116.94 1310 1123.54 1302.5 1124.14C1295 1124.74 1288.4 1119.14 1287.8 1111.64C1287.7 1110.64 1287.7 1109.74 1287.9 1108.84V1108.74C1288.9 1101.44 1290.1 1094.74 1291.4 1087.84L1295.3 1067.54L1303.6 1027.24C1304.1 1024.64 1306.7 1022.94 1309.3 1023.44C1311.5 1023.74 1313.1 1025.74 1313.1 1028.14Z" fill="black"/>
<path d="M2536.1 2111.44L2561.1 2154.54C2566.7 2164.24 2578 2169.24 2588.9 2166.94L2637.7 2156.54C2662.3 2151.34 2679.2 2180.54 2662.4 2199.24L2629.1 2236.34C2621.6 2244.74 2620.3 2256.94 2625.9 2266.64L2650.9 2309.74C2663.5 2331.44 2640.9 2356.64 2618 2346.44L2572.4 2326.24C2562.1 2321.64 2550.1 2324.24 2542.6 2332.64L2509.3 2369.74C2492.5 2388.44 2461.6 2374.74 2464.2 2349.74L2469.4 2300.14C2470.6 2288.94 2464.4 2278.34 2454.1 2273.74L2408.5 2253.54C2385.6 2243.34 2389 2209.74 2413.6 2204.54L2462.4 2194.14C2473.4 2191.84 2481.6 2182.64 2482.8 2171.44L2488 2121.84C2490.5 2096.74 2523.6 2089.74 2536.1 2111.44Z" fill="#FFDA00"/>
<path d="M2490.3 2392.34C2484.8 2392.34 2479.2 2391.14 2473.8 2388.84C2457.7 2381.74 2448.5 2365.74 2450.3 2348.24L2455.5 2298.64C2456 2293.54 2453.2 2288.64 2448.5 2286.54L2402.9 2266.34C2386.8 2259.24 2377.6 2243.24 2379.4 2225.74C2381.2 2208.24 2393.5 2194.54 2410.8 2190.84L2459.6 2180.44C2464.7 2179.34 2468.4 2175.14 2469 2170.04L2474.2 2120.44C2476 2102.94 2488.3 2089.24 2505.6 2085.54C2522.8 2081.84 2539.7 2089.34 2548.5 2104.54L2573.5 2147.64C2576.1 2152.14 2581.2 2154.44 2586.3 2153.34L2635.1 2142.94C2652.3 2139.24 2669.2 2146.74 2678 2161.94C2686.8 2177.14 2684.9 2195.54 2673.1 2208.64L2639.8 2245.74C2636.3 2249.64 2635.8 2255.24 2638.4 2259.64L2663.4 2302.74C2672.2 2317.94 2670.3 2336.34 2658.5 2349.44C2646.7 2362.54 2628.7 2366.44 2612.6 2359.24L2567 2339.04C2562.3 2336.94 2556.8 2338.14 2553.3 2341.94L2520 2379.04C2511.9 2387.64 2501.3 2392.34 2490.3 2392.34ZM2513.9 2112.44C2512.7 2112.44 2511.8 2112.64 2511.2 2112.74C2509.2 2113.14 2502.7 2115.14 2501.8 2123.14L2496.6 2172.74C2494.8 2190.04 2482.2 2204.04 2465.2 2207.64L2416.4 2218.04C2408.5 2219.74 2407.2 2226.44 2407 2228.44C2406.8 2230.44 2406.7 2237.34 2414 2240.54L2459.6 2260.74C2475.4 2267.74 2484.9 2284.14 2483.1 2301.34L2477.9 2350.94C2477.1 2358.94 2483.1 2362.24 2484.9 2363.04C2486.8 2363.84 2493.2 2366.04 2498.6 2360.14L2531.9 2323.04C2543.5 2310.14 2561.9 2306.24 2577.8 2313.24L2623.4 2333.44C2630.7 2336.74 2635.7 2332.04 2637.1 2330.54C2638.5 2329.04 2642.6 2323.54 2638.6 2316.64L2613.6 2273.54C2604.9 2258.54 2606.9 2239.74 2618.5 2226.84L2651.8 2189.74C2657.2 2183.74 2654.3 2177.54 2653.3 2175.84C2652.3 2174.04 2648.3 2168.44 2640.5 2170.14L2591.7 2180.54C2574.7 2184.14 2557.5 2176.54 2548.8 2161.54L2523.8 2118.44C2521.2 2113.44 2516.9 2112.44 2513.9 2112.44Z" fill="black"/>
<path d="M1061.3 1381.84L1174.3 1376.74L1061.3 1381.84Z" fill="white"/>
<path d="M1061.3 1395.44C1054.1 1395.44 1048.1 1389.74 1047.7 1382.44C1047.4 1374.94 1053.2 1368.64 1060.6 1368.24L1173.6 1363.14C1181.1 1362.84 1187.4 1368.64 1187.8 1376.04C1188.1 1383.54 1182.3 1389.84 1174.9 1390.24L1061.9 1395.34C1061.7 1395.44 1061.5 1395.44 1061.3 1395.44Z" fill="black"/>
<g opacity="0.7">
<g opacity="0.7">
<g opacity="0.7">
<g opacity="0.7">
<path opacity="0.7" d="M1452.6 261.841C1450.2 258.141 1465.7 262.941 1465.7 262.941L1476.8 264.241C1476.8 264.241 1496.5 267.441 1506.1 269.741C1515.8 272.041 1525.4 274.841 1534.8 278.041C1546.1 281.941 1556.1 288.741 1563.5 298.141C1594.7 337.941 1617.4 385.341 1628.5 438.241C1650.7 544.241 1625.6 623.241 1565.9 697.641C1565.9 697.641 1579 642.841 1562.8 532.141C1553.6 470.341 1537.9 395.041 1452.6 261.841Z" fill="white"/>
</g>
</g>
</g>
</g>
<g opacity="0.7">
<g opacity="0.7">
<g opacity="0.7">
<g opacity="0.7">
<path opacity="0.7" d="M1112.11 549.562C1145.51 548.56 1171.64 516.196 1170.47 477.276C1169.31 438.355 1141.28 407.617 1107.88 408.619C1074.48 409.621 1048.35 441.985 1049.52 480.905C1050.69 519.826 1078.71 550.565 1112.11 549.562Z" fill="white"/>
</g>
</g>
</g>
</g>
<g opacity="0.7">
<g opacity="0.7">
<g opacity="0.7">
<g opacity="0.7">
<path opacity="0.7" d="M1104.08 656.227C1117.79 654.649 1127.42 640.426 1125.59 624.459C1123.75 608.492 1111.14 596.828 1097.42 598.406C1083.71 599.984 1074.07 614.207 1075.91 630.174C1077.75 646.141 1090.36 657.805 1104.08 656.227Z" fill="white"/>
</g>
</g>
</g>
</g>
<path d="M1160.5 1309.14C1019.6 1309.14 904.101 1230.64 885.001 1143.04C883.401 1135.74 888.001 1128.44 895.401 1126.84C902.701 1125.24 910.001 1129.84 911.601 1137.24C928.901 1216.64 1057.3 1307.74 1227.1 1275.64C1311.2 1259.74 1359.4 1213.04 1357.4 1177.04C1355.5 1144.54 1313.1 1122.04 1243.8 1117.04C1129.4 1108.64 1060.5 1070.24 1020.7 992.441C1017.3 985.741 1019.9 977.541 1026.6 974.141C1033.3 970.741 1041.5 973.341 1044.9 980.041C1080 1048.44 1142 1082.34 1245.9 1089.94C1367.2 1098.84 1383.4 1152.74 1384.7 1175.54C1387.8 1230.84 1322.4 1285.34 1232.4 1302.34C1207.7 1306.94 1183.7 1309.14 1160.5 1309.14Z" fill="black"/>
<path d="M1370.9 1180.54C1369.9 1224.14 1315.6 1272.74 1229.6 1289.04C1061.6 1320.74 920.901 1233.44 898.901 1142.74C898.701 1141.84 898.501 1141.04 898.301 1140.14L1032.7 986.141C1069 1056.84 1131.7 1095.14 1244.8 1103.44C1334.1 1110.04 1371.9 1143.44 1370.9 1180.54Z" fill="white"/>
<g opacity="0.35">
<g opacity="0.35">
<g opacity="0.35">
<g opacity="0.35">
<path opacity="0.35" d="M1370.9 1180.54C1369.9 1224.14 1315.6 1272.74 1229.6 1289.04C1113.5 1310.94 1006 1276.54 943.401 1223.24L930.701 1238.24L899.001 1244.74C899.001 1244.74 844.601 1216.34 840.701 1206.34C821.001 1155.94 848.801 1086.84 887.001 1074.84C919.201 1064.74 1014.6 1230.14 1174.3 1237.04C1308.3 1242.94 1353.8 1193.84 1370.9 1180.54Z" fill="black"/>
</g>
</g>
</g>
</g>
<path d="M1160.5 1309.14C1019.6 1309.14 904.101 1230.64 885.001 1143.04C883.401 1135.74 888.001 1128.44 895.401 1126.84C902.701 1125.24 910.001 1129.84 911.601 1137.24C928.901 1216.64 1057.3 1307.74 1227.1 1275.64C1311.2 1259.74 1359.4 1213.04 1357.4 1177.04C1355.5 1144.54 1313.1 1122.04 1243.8 1117.04C1129.4 1108.64 1060.5 1070.24 1020.7 992.441C1017.3 985.741 1019.9 977.541 1026.6 974.141C1033.3 970.741 1041.5 973.341 1044.9 980.041C1080 1048.44 1142 1082.34 1245.9 1089.94C1367.2 1098.84 1383.4 1152.74 1384.7 1175.54C1387.8 1230.84 1322.4 1285.34 1232.4 1302.34C1207.7 1306.94 1183.7 1309.14 1160.5 1309.14Z" fill="black"/>
<path d="M1090.9 1301.14C1084.9 1301.14 1079.7 1296.64 1079 1290.54C1078.3 1285.04 1063.6 1154.04 1147.6 1078.84C1152.5 1074.44 1160.1 1074.84 1164.5 1079.74C1168.9 1084.64 1168.5 1092.24 1163.6 1096.64C1088.9 1163.64 1102.7 1286.34 1102.9 1287.64C1103.7 1294.24 1099 1300.24 1092.4 1300.94C1091.9 1301.14 1091.4 1301.14 1090.9 1301.14Z" fill="black"/>
<path d="M990.601 1139.74L949.701 1098.84C938.601 1087.74 938.601 1069.64 949.701 1058.64L972.401 1035.94C983.501 1024.84 1001.6 1024.84 1012.6 1035.94L1053.5 1076.84C1064.6 1087.94 1064.6 1106.04 1053.5 1117.04L1030.8 1139.74C1019.7 1150.74 1001.6 1150.74 990.601 1139.74Z" fill="#0276FF"/>
<path d="M1010.7 1160.04C1000.3 1160.04 990.001 1156.14 982.101 1148.24L941.201 1107.34C933.601 1099.74 929.401 1089.54 929.401 1078.74C929.401 1067.94 933.601 1057.74 941.201 1050.14L963.901 1027.44C979.701 1011.64 1005.3 1011.64 1021.1 1027.44L1062 1068.34C1077.8 1084.14 1077.8 1109.74 1062 1125.54L1039.3 1148.24C1031.4 1156.04 1021 1160.04 1010.7 1160.04ZM999.101 1131.24C1005.5 1137.64 1015.9 1137.64 1022.4 1131.24L1045.1 1108.54C1051.5 1102.14 1051.5 1091.74 1045.1 1085.34L1004.2 1044.44C997.801 1038.04 987.401 1038.04 981.001 1044.44L958.301 1067.14C955.201 1070.24 953.501 1074.34 953.501 1078.74C953.501 1083.14 955.201 1087.24 958.301 1090.34L999.101 1131.24Z" fill="black"/>
<path d="M1096.4 1378.34C1092.7 1378.34 1089.6 1375.34 1089.6 1371.54V1295.74C1089.6 1292.04 1092.6 1288.94 1096.4 1288.94C1100.2 1288.94 1103.2 1291.94 1103.2 1295.74V1371.54C1103.2 1375.34 1100.1 1378.34 1096.4 1378.34Z" fill="black"/>
<path d="M884.601 794.741C855.601 822.541 828.901 852.441 806.201 885.141C783.601 917.641 764.401 953.341 746.501 989.441C737.601 1007.54 729.201 1025.94 721.301 1044.44C713.401 1062.94 705.901 1081.54 700.301 1100.14C688.601 1138.64 679.501 1177.84 673.101 1217.24C666.901 1256.74 663.801 1296.64 665.601 1336.04C667.501 1375.34 674.401 1414.44 689.301 1449.64C704.101 1484.84 727.801 1515.54 759.401 1535.14C790.801 1555.04 828.901 1563.34 867.401 1563.64C886.701 1563.74 906.101 1562.04 925.501 1558.94C930.301 1558.14 935.201 1557.34 940.001 1556.34L947.501 1554.94C950.301 1554.44 953.101 1553.84 956.101 1553.54C967.601 1552.04 980.701 1551.64 994.301 1556.14C1001 1558.44 1007.4 1562.04 1012.8 1566.44C1018.2 1570.84 1022.6 1575.84 1026.2 1580.84C1033.5 1590.94 1038.2 1600.94 1042.7 1610.74C1051.3 1630.24 1058.4 1648.94 1066.6 1667.24L1069.7 1674.04C1070.7 1676.14 1071.5 1677.64 1072.5 1679.44C1074.5 1682.84 1076.8 1686.04 1079.5 1689.04C1084.8 1695.04 1091.5 1699.94 1098.9 1703.74C1113.9 1711.44 1131.9 1714.34 1149.5 1712.84C1167.1 1711.34 1184.3 1705.34 1198.4 1695.34C1212.5 1685.44 1223.2 1671.34 1229.1 1655.04C1232.2 1646.84 1233.7 1638.54 1235 1628.64C1236.2 1619.04 1237 1609.44 1237.2 1599.84C1237.7 1580.54 1236 1561.24 1232.4 1542.34C1228.8 1523.44 1223 1504.84 1215.2 1487.44C1207.4 1470.24 1197.4 1453.44 1185.2 1441.44C1183.7 1439.94 1182.1 1438.64 1180.6 1437.34L1178.3 1435.64L1175.4 1433.74C1171.5 1431.14 1167.5 1428.74 1163.3 1426.44C1155 1421.84 1146.4 1417.74 1137.5 1414.24C1119.7 1407.14 1101 1402.04 1082 1398.54C1063 1395.24 1043.7 1393.84 1024.6 1395.14C1005.5 1396.64 986.701 1400.84 969.501 1409.84L969.401 1409.94C966.701 1411.34 963.401 1410.34 962.001 1407.64C960.801 1405.44 961.301 1402.74 963.101 1401.14C979.001 1386.04 1000.1 1376.84 1021.3 1372.34C1042.7 1367.74 1064.6 1367.34 1086.1 1369.64C1107.6 1371.84 1128.7 1377.24 1148.9 1385.04C1159 1389.04 1168.9 1393.54 1178.5 1398.84C1183.3 1401.54 1188 1404.34 1192.7 1407.34L1196.2 1409.64L1200.1 1412.54C1202.5 1414.54 1204.9 1416.54 1207 1418.64C1224 1435.34 1235 1454.54 1244.2 1474.34C1253.2 1494.24 1259.7 1514.94 1263.8 1536.14C1268 1557.34 1269.9 1578.94 1269.5 1600.54C1269.3 1611.34 1268.5 1622.14 1267.2 1632.84C1265.9 1643.14 1263.8 1655.14 1259.8 1666.14C1252 1688.34 1236.9 1708.44 1217.6 1722.04C1198.3 1735.84 1175.6 1743.64 1152.5 1745.74C1129.4 1747.74 1105.5 1744.24 1083.9 1733.44C1073.2 1728.04 1063.1 1720.64 1054.7 1711.44C1050.5 1706.84 1046.8 1701.74 1043.6 1696.34C1042 1693.74 1040.5 1690.74 1039.3 1688.14L1036 1681.04C1027.3 1662.04 1019.8 1642.54 1011.8 1624.74C1007.8 1615.94 1003.5 1607.44 998.801 1601.04C994.001 1594.44 989.201 1590.54 983.301 1588.54C977.401 1586.54 969.401 1586.34 960.801 1587.64C958.701 1587.94 956.501 1588.34 954.301 1588.74L946.801 1590.24C941.601 1591.34 936.401 1592.24 931.101 1593.04C910.201 1596.54 888.701 1598.34 867.201 1598.14C845.601 1597.84 823.801 1595.44 802.401 1590.04C781.101 1584.54 760.201 1576.04 741.301 1564.04C722.401 1552.14 705.501 1536.94 691.701 1519.54C677.801 1502.24 666.801 1482.94 658.401 1462.84C641.601 1422.54 634.501 1379.74 632.501 1337.64C630.701 1295.34 634.201 1253.34 640.801 1212.14C647.501 1170.94 657.701 1130.44 670.101 1090.84C676.501 1070.34 684.601 1051.04 692.901 1032.14C701.301 1013.14 710.101 994.441 719.401 975.941C738.101 939.041 758.101 902.641 782.601 868.341C807.101 834.141 835.701 803.341 866.201 775.141C871.701 770.041 880.301 770.341 885.401 775.841C890.201 781.141 889.901 789.641 884.601 794.741Z" fill="black"/>
<path d="M924.602 1241.54L918.102 1285.34L913.201 1318.14C778.701 1295.24 702.101 1227.54 663.401 1179.64C652.401 1165.94 644.501 1153.94 639.101 1145.04C633.401 1135.44 631.801 1123.74 634.901 1112.84C640.001 1094.74 655.301 1084.64 670.901 1084.64C681.101 1084.64 691.501 1089.04 699.201 1098.34C743.501 1152.64 826.102 1226.04 924.602 1241.54Z" fill="white"/>
<path d="M914.801 1320.44L912.801 1320.14C780.001 1297.54 703.001 1231.94 661.801 1180.94C652.501 1169.44 644.301 1157.74 637.401 1146.04C631.401 1135.94 629.801 1123.64 632.901 1112.34C637.901 1094.64 653.101 1082.74 670.801 1082.74C682.401 1082.74 693.001 1087.84 700.601 1097.24C724.201 1126.14 810.301 1221.64 924.801 1239.64L926.801 1239.94L914.801 1320.44ZM670.901 1086.64C655.001 1086.64 641.301 1097.34 636.801 1113.34C633.901 1123.64 635.401 1134.84 640.801 1143.94C647.701 1155.44 655.801 1166.94 664.901 1178.34C705.501 1228.54 781.201 1293.04 911.501 1315.74L922.301 1243.14C807.301 1224.24 721.301 1128.64 697.501 1099.64C690.701 1091.24 681.201 1086.64 670.901 1086.64Z" fill="black"/>
<g opacity="0.35">
<g opacity="0.35">
<g opacity="0.35">
<g opacity="0.35">
<path opacity="0.35" d="M918.801 1280.44L918.102 1285.34L922.501 1318.14C788.001 1295.24 702.101 1227.54 663.401 1179.64C652.401 1165.94 644.501 1153.94 639.101 1145.04C633.401 1135.44 631.801 1123.74 634.901 1112.84C637.401 1103.94 642.401 1096.94 648.701 1092.14C649.301 1098.04 651.201 1103.84 654.201 1109.04C659.501 1117.94 667.501 1130.04 678.501 1143.64C716.301 1190.44 790.101 1256.04 918.801 1280.44Z" fill="black"/>
</g>
</g>
</g>
</g>
<path d="M913.201 1331.64C912.401 1331.64 911.701 1331.54 910.901 1331.44C733.601 1301.14 653.601 1195.84 627.501 1151.94C619.901 1139.14 617.801 1123.54 621.901 1109.14C627.201 1090.24 642.101 1076.04 660.801 1072.14C679.201 1068.24 697.601 1074.84 709.801 1089.74C732.801 1117.84 816.301 1210.74 926.901 1228.04C934.301 1229.24 939.401 1236.14 938.201 1243.54C937.001 1250.94 930.101 1256.04 922.701 1254.84C802.701 1236.04 713.401 1136.84 688.801 1106.94C683.101 1099.94 674.901 1096.94 666.401 1098.64C657.601 1100.44 650.701 1107.14 648.101 1116.44C646.101 1123.64 647.101 1131.54 650.901 1137.94C675.101 1178.64 749.401 1276.24 915.601 1304.64C923.001 1305.94 928.001 1312.94 926.701 1320.34C925.401 1327.04 919.701 1331.64 913.201 1331.64Z" fill="black"/>
<path d="M990.001 1394.94C989.801 1394.94 989.601 1394.94 989.301 1394.94L938.501 1393.24C925.501 1392.84 915.101 1380.94 914.801 1366.24L911.901 1225.94C911.901 1224.84 911.601 1222.64 911.401 1220.24C909.801 1204.54 908.901 1195.04 919.201 1190.64C924.901 1188.24 931.401 1189.94 935.401 1194.74C961.901 1226.44 1000.4 1245.94 1000.8 1246.04L1008.1 1249.74L1010.9 1371.44C1011 1378.34 1008.5 1384.84 1004 1389.24C1000.2 1392.94 995.301 1394.94 990.001 1394.94ZM942.001 1366.24L983.701 1367.64L981.401 1266.44C972.301 1261.24 956.001 1251.24 939.301 1236.94L941.901 1365.74C942.001 1365.84 942.001 1366.04 942.001 1366.24Z" fill="black"/>
<path d="M1371.5 1706.94C1362.1 1706.94 1353.2 1705.74 1345 1703.74C1298.1 1692.04 1267 1653.34 1267.5 1607.54C1268.7 1503.14 1269.3 1492.74 1269.4 1491.94C1270 1484.44 1276.5 1478.94 1284 1479.44C1291.4 1480.04 1297 1486.44 1296.5 1493.94C1296.5 1494.64 1295.8 1507.04 1294.7 1607.84C1294.3 1645.94 1323 1670.24 1351.7 1677.44C1383.7 1685.44 1427.2 1675.94 1453.4 1625.34C1506.1 1523.54 1485.8 1420.24 1459.7 1390.94C1449 1378.94 1424.2 1358.14 1378.7 1354.14C1371.2 1353.44 1365.7 1346.94 1366.4 1339.44C1367.1 1331.94 1373.6 1326.44 1381.1 1327.14C1421.7 1330.64 1456.8 1346.94 1480 1372.84C1514.9 1411.94 1534.1 1528.74 1477.6 1637.84C1450.7 1689.34 1408.1 1706.94 1371.5 1706.94Z" fill="black"/>
<path d="M1282.9 1505.04C1279 1505.04 1275.3 1503.14 1272.9 1499.74C1269.2 1494.24 1270.6 1486.84 1276.1 1483.04C1281.4 1479.44 1408.1 1395.54 1506.3 1469.24C1511.6 1473.24 1512.7 1480.74 1508.7 1486.04C1504.7 1491.34 1497.2 1492.44 1491.9 1488.44C1407.4 1425.04 1290.7 1502.14 1289.5 1502.94C1287.6 1504.34 1285.2 1505.04 1282.9 1505.04Z" fill="black"/>
<path d="M1283.7 1505.54C1280.6 1505.54 1277.5 1504.44 1274.9 1502.34C1269.4 1497.64 1244.3 1491.14 1224.4 1488.04C1217 1486.84 1211.9 1479.94 1213.1 1472.54C1214.3 1465.14 1221.2 1460.04 1228.6 1461.24C1240.1 1463.04 1278.5 1469.84 1292.5 1481.74C1298.2 1486.64 1298.9 1495.14 1294.1 1500.84C1291.4 1503.84 1287.6 1505.54 1283.7 1505.54Z" fill="black"/>
</svg>
