<svg width="33" height="33" viewBox="0 0 33 33" fill="none" xmlns="http://www.w3.org/2000/svg">
<path d="M11.1667 10.086V4.75269V10.086ZM21.8333 10.086V4.75269V10.086ZM9.83333 15.4194H23.1667H9.83333ZM7.16667 28.7527H25.8333C26.5406 28.7527 27.2189 28.4717 27.719 27.9716C28.219 27.4715 28.5 26.7933 28.5 26.086V10.086C28.5 9.37878 28.219 8.7005 27.719 8.2004C27.2189 7.7003 26.5406 7.41935 25.8333 7.41935H7.16667C6.45942 7.41935 5.78115 7.7003 5.28105 8.2004C4.78095 8.7005 4.5 9.37878 4.5 10.086V26.086C4.5 26.7933 4.78095 27.4715 5.28105 27.9716C5.78115 28.4717 6.45942 28.7527 7.16667 28.7527Z" stroke="white" stroke-width="1.5" stroke-linecap="round" stroke-linejoin="round"/>
</svg>
