<svg width="222" height="670" viewBox="0 0 222 670" fill="none" xmlns="http://www.w3.org/2000/svg">
<path d="M43.5072 14.4142L55.4473 11.0119L63.123 8.46008C67.3873 9.02714 76.0865 10.1613 76.7688 10.1613C77.4511 10.1613 83.3074 11.2954 86.1503 11.8625L92.1203 18.6672L96.3846 25.4719L97.2375 36.5296V45.0355L96.3846 63.0966L95.5318 65.6484L92.9732 71.6025L88.7089 76.7061L87.6771 80.3708L88.7089 84.3614L92.1203 90.3156L96.3846 96.2697L104.06 100.523L110.03 108.178L112.589 116.684L113.442 131.144L101.502 140.5L76.7688 143.052L52.0358 136.248L47.7715 122.638L46.9187 108.178L51.183 99.6721L53.8367 92.6763L51.183 86.5235L43.5072 81.909L34.1257 72.4531L30.7143 67.3496L27.3029 55.2426V49.2885V33.1272L34.1257 21.219L43.5072 14.4142Z" fill="#FFD8C2"/>
<path d="M29.9869 63.8351H28.2725L25.7008 60.2123L23.1291 55.0512L22.2719 51.6105L20.5575 46.4495L18.843 41.2884V33.5468C18.843 32.8587 20.5575 30.3929 21.4147 29.246L22.2719 26.6654L21.4147 24.9451L24.8436 25.8053L25.7008 24.9451V22.3646L23.1291 20.6442L29.1297 21.5044L30.8442 20.6442V18.0637L29.9869 15.4832L30.8442 11.1823L35.9875 7.74158L40.2736 5.16105L41.9881 6.02123L43.7025 4.30088L47.1314 5.16105L49.7031 6.02123L52.2748 3.4407L54.8464 2.58053H57.4181L62.5614 0.860176H65.9903H69.4192L71.1337 1.72035L74.5626 0H77.1343L78.8487 6.02123L79.7059 2.58053L82.2776 0.860176L84.8493 3.4407L89.1354 6.8814L92.5643 12.0425L95.9932 10.3221L94.2787 15.4832L98.5649 19.784L101.137 26.6654L100.279 41.2884L99.4221 51.6105V56.7716L96.8504 61.0725L95.9932 57.6318V53.3309C95.4217 51.6105 94.2787 52.6124 94.2787 51.9242C94.2787 51.2361 93.1358 47.6234 92.5643 41.2884C91.1356 39.2814 88.2782 39.7098 88.2782 39.0216C88.2782 38.1614 84.8493 34.7207 83.9921 34.7207C83.1348 34.7207 78.8487 38.1614 77.9915 38.1614C77.1343 38.1614 71.8469 36.8241 71.1337 37.3013C68.562 39.0216 65.9903 39.0216 64.2759 39.8818C61.4185 39.8818 54.2215 35.7631 54.2215 35.7631C54.2215 35.7631 50.838 39.8818 48.8378 39.8818L41.9881 36.4411L40.2736 42.4623L36.8447 46.7632L33.4158 45.0428L30.8442 51.0641V57.0853L30.4155 60.8878L29.9869 61.0725V63.8351Z" fill="#331E1A"/>
<path d="M7.30631 279.78L3.46082 221.885H7.30631L14.9973 223.423L25.3801 224.192L25.7647 238.42L26.9183 244.573L24.611 260.724L26.9183 285.335L35.7629 309.562L38.4548 315.33L42.6848 322.252V323.79L45.3767 326.482L48.4531 332.25L50.7604 334.173L54.6058 350.709V359.169C54.6058 359.169 49.2313 357.251 48.4531 356.861C46.1458 355.708 38.4548 347.055 35.7629 343.018C34.9938 341.864 16.1509 309.372 14.9973 307.833C13.8436 306.295 8.45995 293.427 8.45995 293.427V291.911V286.874L7.30631 279.78Z" fill="#FFD8C2"/>
<path d="M180.353 226.499L179.584 210.348L176.892 205.734H170.355L163.433 208.81L159.588 217.27L159.972 232.652V236.498L161.126 241.881L163.433 248.693L178.474 314.946L173.86 328.02L175.782 336.48H178.474L180.782 339.941L185.012 341.864L188.857 339.941L192.703 334.942L194.625 330.328C194.625 330.328 196.377 327.143 196.377 319.965L194.86 303.284C194.86 303.284 192.212 288.709 191.186 282.813L187.278 262.341L186.122 254.571L183.43 243.804L180.353 236.498V226.499Z" fill="#FFD8C2"/>
<path d="M122.671 591.052L121.518 595.282L120.748 599.127L125.748 611.049V613.356L126.517 617.586V619.893L126.132 621.816L124.209 625.661C123.825 627.969 123.056 632.66 123.056 632.968C123.056 633.275 125.107 638.223 126.132 640.659C128.183 641.812 132.516 644.12 133.439 644.12C134.361 644.12 140.745 643.351 143.821 642.966L148.82 638.736V631.814V627.584L148.436 622.2L148.82 619.893V617.586V616.048L147.667 614.125C147.41 613.228 146.436 611.664 146.129 611.049C145.821 610.433 144.847 608.613 144.975 607.972L143.052 602.588L141.899 599.127L141.514 596.051L138.053 591.437L134.977 589.129L128.055 589.514L122.671 591.052Z" fill="#6D6D6D"/>
<path d="M186.506 593.744V600.281V607.588V610.664V615.663L188.044 618.355L192.275 621.816L196.505 630.661C196.633 633.737 196.812 639.967 196.505 640.274C196.12 640.659 188.429 643.351 188.044 643.351C187.66 643.351 174.201 641.043 173.432 640.659C172.816 640.351 170.612 637.454 169.586 636.044L166.125 630.661L164.587 628.738L163.433 625.661V621.816V614.509V609.895V607.588V604.511C163.433 604.204 163.946 601.05 164.202 599.512L166.894 596.051C168.176 594.641 170.817 591.744 171.124 591.437C171.432 591.129 173.816 589.77 174.97 589.129L183.43 589.898L186.506 593.744Z" fill="#6D6D6D"/>
<path d="M51.1449 334.558L48.4531 331.866L45.3767 318.791V305.332L48.4531 296.872H53.0677L58.4514 298.795L66.1424 296.872L75.3715 298.795L98.829 295.334L114.98 294.18L128.055 295.334L147.667 293.411H158.05L168.432 294.18H172.662L177.277 293.411L180.738 305.332L182.276 314.561L184.245 317.69L182.276 326.031V340.437L185.003 341.953L187.66 391.471V425.696V433.387L189.198 454.922L190.736 482.225V496.837V522.218L191.505 535.292V551.059V564.133L192.274 575.67L190.736 582.976V587.976V595.282L192.274 603.742L188.044 605.28L181.123 603.742L172.662 605.28L161.126 608.357C161.254 604.896 161.434 597.666 161.126 596.436C160.741 594.897 161.126 585.668 159.972 584.13C158.819 582.592 159.972 571.055 159.972 569.517V557.981V549.136L158.819 538.369L156.896 531.447L154.973 514.142C154.589 510.553 153.743 503.144 153.435 502.221C153.05 501.067 151.897 493.761 151.897 492.992V483.378L149.59 474.534L145.359 462.997L140.745 448.384L138.438 439.155L135.746 434.925L133.054 425.696L128.055 407.622L123.825 390.702V407.622V414.928L122.671 425.696L123.825 445.308L122.671 462.997C123.056 467.355 123.825 476.226 123.825 476.841V486.455V496.837L125.747 506.067L127.286 512.219L128.055 518.757L129.593 524.14L131.131 531.447L133.054 541.445L135.746 555.673L138.438 564.903L140.745 581.438L142.283 589.898V601.05L138.438 602.588L131.131 605.28L127.286 607.203L125.747 612.587L120.748 613.74V609.51L117.672 605.28L116.903 601.05L112.673 591.052L106.135 574.516L100.752 555.673L98.0599 541.445L92.6762 527.986C91.3944 525.038 88.7538 518.91 88.4462 517.988C88.1386 517.065 86.5235 509.656 85.7544 506.067L83.0625 491.838L75.7561 468.765L73.4488 457.229L71.9106 443.77L68.4497 430.695L64.2196 416.851L61.5278 396.855L56.5286 374.935L54.9904 366.091L53.0677 361.861L51.1449 359.938V358.015L54.9904 358.784L53.8368 344.171L51.1449 334.558Z" fill="#2F2F2F"/>
<path d="M53.8368 98.0601L52.2986 96.9064L49.2222 101.906L44.9922 107.289L39.224 111.904L34.9939 115.365L27.6875 119.21L19.9965 121.902L14.6128 123.44L7.30639 126.132L3.07635 128.439L0 130.362V221.5L4.23 221.885H7.30639L15.7665 224.192H21.1502H24.9956V230.345V237.267L26.1493 245.342L28.8411 250.726L34.9939 268.031L38.8394 287.258L41.1467 301.102V310.716L42.6849 323.79L48.0686 332.25L51.5295 326.482H56.9132L62.2969 321.868C65.5015 319.56 72.1414 314.715 73.0643 313.792C73.9872 312.869 78.3198 310.588 80.3707 309.562L89.5999 307.255L101.905 301.102H114.211H126.517C127.44 301.102 130.49 299.051 131.9 298.026L142.283 296.103H150.743L155.742 301.102L161.511 305.332L167.279 307.255L172.662 310.716L179.584 313.408L182.276 317.253L186.891 318.791L185.737 313.408V307.639L182.276 301.102C180.994 298.154 182.045 292.027 181.123 291.104C180.2 290.181 178.687 285.079 178.046 282.644L176.123 278.798L172.662 268.031L167.279 258.032L163.049 249.188L158.819 245.342L153.82 235.344L152.281 220.347L158.819 218.039L164.202 216.501L170.355 215.348L176.123 211.117L184.968 209.579L188.429 205.349L184.968 201.119C183.814 198.94 181.43 194.428 181.123 193.813C180.738 193.044 178.046 185.353 178.046 183.43C178.046 181.507 176.508 173.047 176.123 171.509C175.816 170.278 173.688 164.074 172.662 161.126L171.509 155.358L167.279 145.36L164.202 135.361L158.819 126.132L150.743 119.21L136.899 117.288L119.21 110.75L113.057 104.982L104.213 98.0601L96.9063 94.2146H94.2145V96.1373L98.8291 100.367L104.213 104.982L106.52 111.904L104.982 119.21L100.367 123.44L92.6763 128.439L79.9862 129.593C76.7816 128.568 70.2955 126.44 69.9879 126.132C69.6802 125.825 67.296 123.184 66.1424 121.902L59.9896 113.057L56.1441 104.213L53.8368 98.0601Z" fill="white"/>
<path d="M85.7544 132.669L91.9072 128.439L79.6016 129.208L69.9879 126.132L70.757 127.286L74.218 130.362L76.5252 133.823L79.2171 137.669L80.7553 135.746L85.7544 132.669Z" fill="#6D6D6D"/>
<path d="M120.749 627.969L125.363 618.739L126.517 617.97H131.901L138.438 618.739L140.745 620.278L142.668 622.585L144.591 626.046L146.513 628.738L147.283 629.122L148.436 627.969V622.585L150.744 624.123L151.128 626.43L153.051 636.044V651.811L151.128 657.964L138.438 669.5C126.645 669.5 108.289 669.269 107.674 668.346C106.905 667.193 105.367 662.963 104.598 660.271C103.828 657.579 105.751 654.118 106.136 652.964C106.52 651.811 109.597 649.119 110.75 647.196C111.904 645.273 114.211 642.966 114.98 642.197C115.596 641.582 117.288 639.121 117.288 639.121L118.826 634.506L120.749 627.969Z" fill="white"/>
<path d="M163.433 624.892L161.511 625.661V651.042L188.045 669.5H215.732L218.424 668.346L220.731 665.655L221.885 661.425V657.579C221.244 656.041 219.808 652.964 219.193 652.964C218.424 652.964 215.732 651.811 214.963 651.042C214.348 650.426 211.118 648.35 209.964 646.812L204.196 642.582L199.581 636.429C199.581 636.429 197.12 630.507 196.505 629.892C195.889 629.276 195.223 626.815 194.967 625.661C193.941 623.867 191.813 620.201 191.506 619.893C191.198 619.586 189.583 619.252 188.814 619.124L186.122 621.816L183.815 622.201L178.815 623.739L175.739 626.815L171.509 629.892C170.227 630.404 167.587 631.43 167.279 631.43C166.971 631.43 165.356 629.635 164.587 628.738L163.433 624.892Z" fill="white"/>
</svg>
