<svg width="287" height="160" viewBox="0 0 287 160" fill="none" xmlns="http://www.w3.org/2000/svg">
<g clip-path="url(#clip0_769_2)">
<path d="M6.68529 67.8945C3.4387 52.8156 10.271 35.8465 24.5613 30.0394C35.8153 25.4653 53.0341 23.9484 76.0862 29.5137C137.075 44.2351 131.817 27.4106 155.477 14.2665C176.302 2.69967 201.744 -11.496 245.908 15.318C279.399 35.652 259.578 67.3687 282.186 86.822C296.726 99.3326 272.196 159.903 201.744 146.759C131.292 133.615 115.332 152.056 83.4469 158.852C51.3753 165.687 -14.85 125.024 3.00494 106.275C13.5202 95.2342 8.72789 77.374 6.68529 67.8945Z" fill="white"/>
<path d="M24.9373 71.5746C22.1455 58.6119 28.0183 44.0272 40.3028 39.035C49.9768 35.0918 64.7771 33.801 84.5932 38.5829C137.017 51.238 132.498 36.7742 152.835 25.4756C170.734 15.5307 192.604 3.33034 230.566 26.3799C259.355 43.8589 242.317 71.1198 261.75 87.8418C274.247 98.5963 253.164 150.671 192.612 139.367C132.059 128.063 118.334 143.92 90.926 149.761C63.3523 155.634 6.42248 120.681 21.7748 104.566C30.8127 95.0736 26.6907 79.7239 24.9373 71.5746Z" fill="#1F1F1F"/>
<path d="M45.4051 72.3899C43.0155 61.291 48.0339 48.8015 58.5623 44.5244C66.8458 41.1569 79.5193 40.0422 96.4884 44.1379C141.378 54.974 137.498 42.5896 154.924 32.9155C170.253 24.4007 188.978 13.9538 221.486 33.6884C246.137 48.6543 231.547 72.0008 248.187 86.3174C258.889 95.5183 240.827 140.108 188.978 130.434C137.13 120.76 125.376 134.333 101.906 139.336C78.2995 144.37 29.5559 114.438 42.7 100.639C50.4366 92.5135 46.9061 79.3668 45.4051 72.3899V72.3899Z" fill="#0276FF"/>
<path d="M53.7408 81.0386C54.9022 81.0386 55.8438 80.0971 55.8438 78.9356C55.8438 77.7741 54.9022 76.8325 53.7408 76.8325C52.5793 76.8325 51.6377 77.7741 51.6377 78.9356C51.6377 80.0971 52.5793 81.0386 53.7408 81.0386Z" fill="white"/>
<path d="M70.1713 67.3689C70.8246 67.3689 71.3542 66.8392 71.3542 66.1859C71.3542 65.5326 70.8246 65.0029 70.1713 65.0029C69.5179 65.0029 68.9883 65.5326 68.9883 66.1859C68.9883 66.8392 69.5179 67.3689 70.1713 67.3689Z" fill="white"/>
<path d="M74.2461 99.4403C74.972 99.4403 75.5605 98.8519 75.5605 98.1259C75.5605 97.4 74.972 96.8115 74.2461 96.8115C73.5201 96.8115 72.9316 97.4 72.9316 98.1259C72.9316 98.8519 73.5201 99.4403 74.2461 99.4403Z" fill="white"/>
<path d="M63.0728 117.842C63.8713 117.842 64.5187 117.195 64.5187 116.396C64.5187 115.598 63.8713 114.95 63.0728 114.95C62.2743 114.95 61.627 115.598 61.627 116.396C61.627 117.195 62.2743 117.842 63.0728 117.842Z" fill="white"/>
<path d="M96.4595 123.888C97.258 123.888 97.9054 123.241 97.9054 122.442C97.9054 121.644 97.258 120.997 96.4595 120.997C95.661 120.997 95.0137 121.644 95.0137 122.442C95.0137 123.241 95.661 123.888 96.4595 123.888Z" fill="white"/>
<path d="M158.894 123.363C159.765 123.363 160.471 122.656 160.471 121.785C160.471 120.914 159.765 120.208 158.894 120.208C158.023 120.208 157.316 120.914 157.316 121.785C157.316 122.656 158.023 123.363 158.894 123.363Z" fill="white"/>
<path d="M184.788 89.4508C185.586 89.4508 186.234 88.8035 186.234 88.0049C186.234 87.2064 185.586 86.5591 184.788 86.5591C183.989 86.5591 183.342 87.2064 183.342 88.0049C183.342 88.8035 183.989 89.4508 184.788 89.4508Z" fill="white"/>
<path d="M204.636 69.4717C205.216 69.4717 205.687 69.0009 205.687 68.4202C205.687 67.8394 205.216 67.3687 204.636 67.3687C204.055 67.3687 203.584 67.8394 203.584 68.4202C203.584 69.0009 204.055 69.4717 204.636 69.4717Z" fill="white"/>
<path d="M220.802 74.2037C221.601 74.2037 222.248 73.5564 222.248 72.7579C222.248 71.9593 221.601 71.312 220.802 71.312C220.004 71.312 219.356 71.9593 219.356 72.7579C219.356 73.5564 220.004 74.2037 220.802 74.2037Z" fill="white"/>
<path d="M232.764 55.8017C233.49 55.8017 234.078 55.2132 234.078 54.4873C234.078 53.7613 233.49 53.1729 232.764 53.1729C232.038 53.1729 231.449 53.7613 231.449 54.4873C231.449 55.2132 232.038 55.8017 232.764 55.8017Z" fill="white"/>
<path d="M230.397 109.167C231.123 109.167 231.712 108.578 231.712 107.852C231.712 107.127 231.123 106.538 230.397 106.538C229.671 106.538 229.083 107.127 229.083 107.852C229.083 108.578 229.671 109.167 230.397 109.167Z" fill="white"/>
<path d="M208.711 125.466C209.509 125.466 210.156 124.819 210.156 124.02C210.156 123.222 209.509 122.574 208.711 122.574C207.912 122.574 207.265 123.222 207.265 124.02C207.265 124.819 207.912 125.466 208.711 125.466Z" fill="white"/>
<path d="M129.977 106.801C131.284 106.801 132.343 105.742 132.343 104.435C132.343 103.129 131.284 102.069 129.977 102.069C128.671 102.069 127.611 103.129 127.611 104.435C127.611 105.742 128.671 106.801 129.977 106.801Z" fill="white"/>
<path d="M141.544 81.0385C142.85 81.0385 143.91 79.9793 143.91 78.6726C143.91 77.3659 142.85 76.3066 141.544 76.3066C140.237 76.3066 139.178 77.3659 139.178 78.6726C139.178 79.9793 140.237 81.0385 141.544 81.0385Z" fill="white"/>
<path d="M171.775 69.7348C173.082 69.7348 174.141 68.6755 174.141 67.3689C174.141 66.0622 173.082 65.0029 171.775 65.0029C170.468 65.0029 169.409 66.0622 169.409 67.3689C169.409 68.6755 170.468 69.7348 171.775 69.7348Z" fill="white"/>
<path d="M171.644 105.486C173.023 105.486 174.141 104.368 174.141 102.989C174.141 101.61 173.023 100.492 171.644 100.492C170.265 100.492 169.146 101.61 169.146 102.989C169.146 104.368 170.265 105.486 171.644 105.486Z" fill="white"/>
<path d="M197.407 102.069C198.786 102.069 199.904 100.951 199.904 99.5716C199.904 98.1923 198.786 97.0742 197.407 97.0742C196.027 97.0742 194.909 98.1923 194.909 99.5716C194.909 100.951 196.027 102.069 197.407 102.069Z" fill="white"/>
<path d="M120.25 91.291C121.556 91.291 122.616 90.2317 122.616 88.925C122.616 87.6183 121.556 86.5591 120.25 86.5591C118.943 86.5591 117.884 87.6183 117.884 88.925C117.884 90.2317 118.943 91.291 120.25 91.291Z" fill="white"/>
<path d="M135.498 112.322C136.804 112.322 137.864 111.262 137.864 109.956C137.864 108.649 136.804 107.59 135.498 107.59C134.191 107.59 133.132 108.649 133.132 109.956C133.132 111.262 134.191 112.322 135.498 112.322Z" fill="white"/>
<path d="M152.585 94.1826C153.891 94.1826 154.951 93.1233 154.951 91.8166C154.951 90.51 153.891 89.4507 152.585 89.4507C151.278 89.4507 150.219 90.51 150.219 91.8166C150.219 93.1233 151.278 94.1826 152.585 94.1826Z" fill="white"/>
<path d="M91.465 100.492C92.699 100.492 93.6995 99.4915 93.6995 98.2574C93.6995 97.0234 92.699 96.0229 91.465 96.0229C90.2309 96.0229 89.2305 97.0234 89.2305 98.2574C89.2305 99.4915 90.2309 100.492 91.465 100.492Z" fill="white"/>
<path d="M114.075 71.8298C115.309 71.8298 116.31 70.8294 116.31 69.5953C116.31 68.3613 115.309 67.3608 114.075 67.3608C112.841 67.3608 111.841 68.3613 111.841 69.5953C111.841 70.8294 112.841 71.8298 114.075 71.8298Z" fill="white"/>
<path d="M45.1631 115.579L53.7409 78.9355L90.5445 98.3888L119.987 88.9251L129.977 104.435L135.497 110.744L152.585 91.5539L171.512 103.384L197.012 99.4404" stroke="white" stroke-width="0.788647" stroke-linecap="round" stroke-linejoin="round"/>
<path d="M121.005 88.9355L141.223 78.3966L171.775 67.3687" stroke="white" stroke-width="0.788647" stroke-miterlimit="10"/>
<path d="M92.7787 54.4875C93.432 54.4875 93.9616 53.9579 93.9616 53.3046C93.9616 52.6512 93.432 52.1216 92.7787 52.1216C92.1253 52.1216 91.5957 52.6512 91.5957 53.3046C91.5957 53.9579 92.1253 54.4875 92.7787 54.4875Z" fill="white"/>
<path d="M178.61 33.7198C179.191 33.7198 179.662 33.249 179.662 32.6682C179.662 32.0875 179.191 31.6167 178.61 31.6167C178.029 31.6167 177.559 32.0875 177.559 32.6682C177.559 33.249 178.029 33.7198 178.61 33.7198Z" fill="white"/>
<path d="M115.912 59.7453C116.566 59.7453 117.095 59.2157 117.095 58.5624C117.095 57.909 116.566 57.3794 115.912 57.3794C115.259 57.3794 114.729 57.909 114.729 58.5624C114.729 59.2157 115.259 59.7453 115.912 59.7453Z" fill="white"/>
<path d="M153.11 52.1216C153.691 52.1216 154.162 51.6508 154.162 51.0701C154.162 50.4893 153.691 50.0186 153.11 50.0186C152.529 50.0186 152.059 50.4893 152.059 51.0701C152.059 51.6508 152.529 52.1216 153.11 52.1216Z" fill="white"/>
<path d="M90.9386 78.9354C91.4468 78.9354 91.8587 78.5235 91.8587 78.0153C91.8587 77.5072 91.4468 77.0952 90.9386 77.0952C90.4305 77.0952 90.0186 77.5072 90.0186 78.0153C90.0186 78.5235 90.4305 78.9354 90.9386 78.9354Z" fill="white"/>
<path d="M195.172 42.6575C196.043 42.6575 196.749 41.9513 196.749 41.0802C196.749 40.2091 196.043 39.5029 195.172 39.5029C194.301 39.5029 193.595 40.2091 193.595 41.0802C193.595 41.9513 194.301 42.6575 195.172 42.6575Z" fill="white"/>
<path d="M165.203 56.5904C165.784 56.5904 166.254 56.1196 166.254 55.5388C166.254 54.9581 165.784 54.4873 165.203 54.4873C164.622 54.4873 164.151 54.9581 164.151 55.5388C164.151 56.1196 164.622 56.5904 165.203 56.5904Z" fill="white"/>
<path d="M58.999 52.1215C59.7249 52.1215 60.3134 51.533 60.3134 50.8071C60.3134 50.0812 59.7249 49.4927 58.999 49.4927C58.2731 49.4927 57.6846 50.0812 57.6846 50.8071C57.6846 51.533 58.2731 52.1215 58.999 52.1215Z" fill="white"/>
<path d="M215.677 90.2397C216.403 90.2397 216.991 89.6512 216.991 88.9253C216.991 88.1993 216.403 87.6108 215.677 87.6108C214.951 87.6108 214.362 88.1993 214.362 88.9253C214.362 89.6512 214.951 90.2397 215.677 90.2397Z" fill="white"/>
<path d="M230.398 107.853L215.677 88.9252L220.672 72.6265L204.636 68.4204" stroke="white" stroke-width="0.788647" stroke-miterlimit="10"/>
<path d="M114.075 69.5952L119.987 88.925" stroke="white" stroke-width="0.788647" stroke-linecap="round" stroke-linejoin="round"/>
</g>
<defs>
<clipPath id="clip0_769_2">
<rect width="286.2" height="159.617" fill="white"/>
</clipPath>
</defs>
</svg>
