<svg width="55" height="30" fill="none" xmlns="http://www.w3.org/2000/svg">
  <path d="M23.776 2.557c1.655-2.867 5.793-2.867 7.448 0l11.511 19.938c1.656 2.867-.413 6.45-3.724 6.45H15.99c-3.31 0-5.38-3.583-3.725-6.45L23.776 2.557Z" fill="url(#a)"/>
  <path d="M54.366 18.195c0 .59-.525 1.31-1.894 2.074-1.327.74-3.28 1.421-5.736 2-4.905 1.156-11.706 1.876-19.236 1.876-7.53 0-14.331-.72-19.236-1.876-2.456-.579-4.41-1.26-5.736-2-1.37-.763-1.894-1.484-1.894-2.074 0-.59.525-1.311 1.894-2.074 1.327-.74 3.28-1.422 5.736-2 4.905-1.157 11.706-1.877 19.236-1.877 7.53 0 14.331.72 19.236 1.876 2.456.58 4.41 1.261 5.736 2 1.37.764 1.894 1.485 1.894 2.075Z" stroke="#fff"/>
  <path d="M54.366 18.195c0 .59-.525 1.31-1.894 2.074-1.327.74-3.28 1.421-5.736 2-4.905 1.156-11.706 1.876-19.236 1.876-7.53 0-14.331-.72-19.236-1.876-2.456-.579-4.41-1.26-5.736-2-1.37-.763-1.894-1.484-1.894-2.074 0-.59.525-1.311 1.894-2.074 1.327-.74 3.28-1.422 5.736-2 4.905-1.157 11.706-1.877 19.236-1.877 7.53 0 14.331.72 19.236 1.876 2.456.58 4.41 1.261 5.736 2 1.37.764 1.894 1.485 1.894 2.075Z" stroke="url(#b)"/>
  <circle cx="27.438" cy="18.309" r="11.257" fill="#fff"/>
  <path d="M11.862 23.277c12.369 1.93 19.195 1.892 31.275 0" stroke="#fff"/>
  <path d="M17.617 24.08c7.757 1.018 11.537.982 19.637.016" stroke="url(#c)"/>
  <defs>
    <linearGradient id="a" x1="27.5" y1="-3.632" x2="49.49" y2="1.273" gradientUnits="userSpaceOnUse">
      <stop/>
      <stop offset="1" stop-color="currentcolor"/>
    </linearGradient>
    <linearGradient id="b" x1="27.5" y1="9.918" x2="50.602" y2="29.64" gradientUnits="userSpaceOnUse">
      <stop/>
      <stop offset="1" stop-color="currentcolor"/>
    </linearGradient>
    <linearGradient id="c" x1="27.436" y1="23.974" x2="27.936" y2="26.604" gradientUnits="userSpaceOnUse">
      <stop/>
      <stop offset="1" stop-color="currentcolor"/>
    </linearGradient>
  </defs>
</svg>
