<svg width="33" height="33" viewBox="0 0 33 33" fill="none" xmlns="http://www.w3.org/2000/svg">
<path d="M4.5 11.4193L15.02 18.4326C15.4582 18.725 15.9732 18.881 16.5 18.881C17.0268 18.881 17.5418 18.725 17.98 18.4326L28.5 11.4193H4.5ZM7.16667 26.086H25.8333C26.5406 26.086 27.2189 25.805 27.719 25.3049C28.219 24.8048 28.5 24.1266 28.5 23.4193V10.086C28.5 9.37873 28.219 8.70046 27.719 8.20036C27.2189 7.70026 26.5406 7.41931 25.8333 7.41931H7.16667C6.45942 7.41931 5.78115 7.70026 5.28105 8.20036C4.78095 8.70046 4.5 9.37873 4.5 10.086V23.4193C4.5 24.1266 4.78095 24.8048 5.28105 25.3049C5.78115 25.805 6.45942 26.086 7.16667 26.086Z" stroke="black" stroke-width="1.5" stroke-linecap="round" stroke-linejoin="round"/>
</svg>
