<svg data-name="Layer 2" xmlns="http://www.w3.org/2000/svg" viewBox="0 0 400 300" width="406" height="306" class="illustration styles_illustrationTablet__1DWOa">
  <path d="m205.54 277.81 149.75-81.13a6.79 6.79 0 0 0 .27-11.9L210.39 98a7.38 7.38 0 0 0-7.36-.1L44.62 186.61a6.79 6.79 0 0 0 0 11.95l141.25 79.11a20.46 20.46 0 0 0 19.67.14Z" fill="#00275e"/>
  <path d="M180.19 157.31s-30.29 16.17-37.46 54.75c0 0 29.5 6.25 69-26.42" fill="#eb773a"/>
  <path d="M179.81 162.23s-12.92 11.59-16.56 19.77-8.39 20.15-8.39 20.15S177.61 204.09 199 191s1-37.57-19.19-28.77Z" fill="#ffae46"/>
  <path d="M192.65 158.16c-.78 1.31-14.09 8.81-16.58 19.63l4.34-3.29s-7.38 10.34-10.51 16.29c0 0 18-7.17 17.44-6.74l-5.09 3.86s13.69-.29 23-8.61-3.49-22.83-3.49-22.83Z" fill="#fad374"/>
  <path d="M232.82 158.06s-2.35 15.25-7.38 19-21.36 16.18-21.36 16.18l-2.71-3.58s11.26-20.07 13.25-28.93 18.2-2.67 18.2-2.67Z" fill="#68e1fd"/>
  <path d="M232.82 158.06s-2.35 15.25-7.38 19-21.36 16.18-21.36 16.18l-2.71-3.58s11.26-20.07 13.25-28.93 18.2-2.67 18.2-2.67Z" fill="#363636" opacity=".61"/>
  <path d="M216.56 136.6s-15.32-1.86-20.34 2-21.36 16.18-21.36 16.18l2.71 3.58s22.37-5.41 31.44-4.92 7.55-16.84 7.55-16.84Z" fill="#68e1fd"/>
  <path d="M216.56 136.6s-15.32-1.86-20.34 2-21.36 16.18-21.36 16.18l2.71 3.58s22.37-5.41 31.44-4.92 7.55-16.84 7.55-16.84Z" fill="#363636" opacity=".61"/>
  <path d="M290.11 111a93.23 93.23 0 0 0 9.74-20.23s-8.9.1-22.2 4.06c1.06 6.77 6.47 12.17 12.46 16.17Z" fill="#68e1fd"/>
  <ellipse cx="247.84" cy="129.79" rx="9.6" ry="10.91" transform="rotate(-37.15 247.8395 129.7843)" fill="#68e1fd"/>
  <path d="M330.93 66.83s-83.8 20.84-126.38 82.54c0 0-10 10.67-5.17 16.6s20.93 1.21 20.93 1.21 52.91-15.02 110.62-100.35Z" fill="#68e1fd"/>
  <path d="M204.55 149.37s-10.56-1.28-14 1.35-14.72 11.15-14.72 11.15l1.87 2.47s15.42-3.73 21.66-3.39 5.19-11.58 5.19-11.58Zm12.72 16.79s-1.62 10.51-5.09 13.13-14.72 11.15-14.72 11.15L195.6 188s7.76-13.83 9.13-19.94 12.54-1.9 12.54-1.9Z" fill="#68e1fd"/>
  <path d="M204.55 149.37s-10.56-1.28-14 1.35-14.72 11.15-14.72 11.15l1.87 2.47s15.42-3.73 21.66-3.39 5.19-11.58 5.19-11.58Zm12.72 16.79s-1.62 10.51-5.09 13.13-14.72 11.15-14.72 11.15L195.6 188s7.76-13.83 9.13-19.94 12.54-1.9 12.54-1.9Z" fill="#363636" opacity=".29"/>
  <path d="M290.22 81.86s-.29 14.17 14.71 19.42l-8.7 9.88s-18.84-10.59-15.92-24.5Zm-53.81 32.85s.17 24 22.55 30.83l-16.62 11.36s-24-8.33-19.55-29.68Z" fill="#68e1fd"/>
  <circle cx="274.82" cy="108.55" r="3.38" transform="rotate(-37.15 274.829 108.5513)" fill="#68e1fd"/>
  <circle cx="259.01" cy="120.53" r="8.82" transform="rotate(-37 261.205 120.785)" fill="#68e1fd"/>
  <path d="M290.22 81.86s-.29 14.17 14.71 19.42l-8.7 9.88s-18.84-10.59-15.92-24.5Zm-53.81 32.85s.17 24 22.55 30.83l-16.62 11.36s-24-8.33-19.55-29.68Z" fill="#606060" opacity=".61"/>
  <circle cx="274.82" cy="108.55" r="3.38" transform="rotate(-37.15 274.829 108.5513)" fill="#606060" opacity=".61"/>
  <circle cx="259.01" cy="120.53" r="8.82" transform="rotate(-37 261.205 120.785)" fill="#606060" opacity=".61"/>
  <path d="M306.3 172.93a1 1 0 0 0 0 2 1 1 0 0 0 0-2Zm-50.66 39.83v.64a1 1 0 0 0 2 0v-.64a1 1 0 0 0-2 0Zm-70.04 15.92v.64a1 1 0 0 0 2 0v-.64a1 1 0 0 0-2 0Zm65.31-48.75a1 1 0 0 0 0 2 1 1 0 0 0 0-2ZM131.21 178a1 1 0 0 0 0 2 1 1 0 0 0 0-2Zm-44.94 2.93v.64a1 1 0 0 0 2 0v-.64a1 1 0 0 0-2 0Zm21.38 31.47a1 1 0 0 0 0 2 1 1 0 0 0 0-2Zm33.11-56.67a1 1 0 0 0 0 2 1 1 0 0 0 0-2Zm49.02-31.83a1 1 0 0 0 0 2 1 1 0 0 0 0-2Zm29.93 124.79a1 1 0 0 0 0 2 1 1 0 0 0 0-2Z" fill="#fff"/>
  <path d="M285.92 192.48c-6.43 0-6.45 10 0 10s6.45-10 0-10Zm-179.54-5.73c-6.43 0-6.45 10 0 10s6.44-10 0-10Z" fill="#ffae46"/>
  <path d="M202.23 252.52a5 5 0 0 0-7.07 0 5.2 5.2 0 0 0-1.46 3.54v.64a5.16 5.16 0 0 0 1.46 3.54 5 5 0 0 0 7.07 0 5.2 5.2 0 0 0 1.46-3.54v-.64a5.16 5.16 0 0 0-1.46-3.54Z" fill="#00aee1"/>
  <circle cx="110.75" cy="96.94" r="21.8" fill="#68e1fd"/>
  <path d="M128.48 84.95a56.38 56.38 0 0 1 7-1.46 32.18 32.18 0 0 1 3.58-.34 16.22 16.22 0 0 1 3.72.22 5.51 5.51 0 0 1 2 .76 3.16 3.16 0 0 1 .92.93 2.83 2.83 0 0 1 .42 1.34 4.85 4.85 0 0 1-.53 2.26 11.28 11.28 0 0 1-1 1.7 29.63 29.63 0 0 1-5.22 5.21 89.59 89.59 0 0 1-11.89 8 135.57 135.57 0 0 1-12.73 6.49 117.61 117.61 0 0 1-13.39 5.1 67.87 67.87 0 0 1-7 1.83A46.67 46.67 0 0 1 87 118a21 21 0 0 1-3.8-.15 12.06 12.06 0 0 1-3.88-1.12 6.93 6.93 0 0 1-1.82-1.27 4.76 4.76 0 0 1-1.25-2.15 4.92 4.92 0 0 1 0-2.37A8 8 0 0 1 77 109a20.63 20.63 0 0 1 5-5.52 41.27 41.27 0 0 1 5.87-4.06 70.35 70.35 0 0 0-4.9 5 22 22 0 0 0-3.81 5.58 3.56 3.56 0 0 0-.26 2.52 2 2 0 0 0 .6.8 4.79 4.79 0 0 0 1.12.65 13.92 13.92 0 0 0 6.18.59 61.8 61.8 0 0 0 13.29-3.06c4.4-1.42 8.69-3.2 13-5a146.92 146.92 0 0 0 24.38-13.3 31.76 31.76 0 0 0 5.09-4.38 9 9 0 0 0 .92-1.23 2.94 2.94 0 0 0 .42-1.1.75.75 0 0 0-.34-.68 4 4 0 0 0-1.25-.61 24.06 24.06 0 0 0-6.76-.64c-2.37.01-4.72.15-7.07.39Z" fill="#8cc63f"/>
</svg>
