<svg width="64" height="64" viewBox="0 0 64 64" fill="none" xmlns="http://www.w3.org/2000/svg">
<path d="M58.1699 44.5502C56.9208 43.2956 55.3478 42.4125 53.6263 41.9994C51.9048 41.5862 50.1024 41.6592 48.4199 42.2102L21.7899 15.5802C24.1399 8.79019 17.7899 1.67019 10.7899 3.18019C10.548 3.23081 10.3335 3.36917 10.1876 3.56859C10.0418 3.76801 9.97488 4.01438 9.99989 4.26019C10.0299 4.48702 10.1275 4.69956 10.2799 4.87019L14.2799 8.87019L13.0999 13.1002L8.82989 14.2402L4.82989 10.2402C4.61286 10.0656 4.33768 9.97982 4.05989 10.0002C3.84826 10.0212 3.64884 10.1091 3.49059 10.2512C3.33235 10.3932 3.22351 10.582 3.17989 10.7902C1.62989 17.7902 8.87989 24.2002 15.5999 21.7902L42.2099 48.4202C39.8499 55.2102 46.2099 62.3302 53.2099 60.8202C53.4517 60.7696 53.6663 60.6312 53.8121 60.4318C53.958 60.2324 54.0249 59.986 53.9999 59.7402C53.9699 59.5134 53.8723 59.3008 53.7199 59.1302L49.7199 55.1302L50.8999 50.9002L55.1699 49.7602L59.1699 53.7602C59.3704 53.9302 59.6182 54.0349 59.8799 54.0602V54.0602C60.1152 54.0645 60.3446 53.9856 60.5275 53.8374C60.7104 53.6893 60.8352 53.4813 60.8799 53.2502C61.1852 51.689 61.0973 50.0765 60.6242 48.5578C60.1511 47.039 59.3077 45.6618 58.1699 44.5502Z" fill="white"/>
<path d="M34.4799 24.65L39.3599 29.53C39.4528 29.6238 39.5634 29.6982 39.6853 29.7489C39.8072 29.7997 39.9379 29.8258 40.0699 29.8258C40.2019 29.8258 40.3326 29.7997 40.4545 29.7489C40.5763 29.6982 40.6869 29.6238 40.7799 29.53L48.1199 22.17C54.9999 24.61 62.3199 18.09 60.7499 11C60.7063 10.7919 60.5974 10.6031 60.4392 10.461C60.2809 10.3189 60.0815 10.231 59.8699 10.21C59.723 10.2001 59.5756 10.2198 59.4365 10.2679C59.2974 10.316 59.1693 10.3915 59.0599 10.49L55.0599 14.49L50.6999 13.32L49.4899 9.00004L53.4899 5.00004C53.5886 4.89112 53.6636 4.76287 53.71 4.62342C53.7565 4.48398 53.7735 4.33639 53.7599 4.19004C53.7531 3.97188 53.6752 3.76193 53.538 3.5922C53.4008 3.42248 53.2118 3.30231 52.9999 3.25004C45.8599 1.71004 39.4499 9.00003 41.8399 15.86L34.4799 23.23C34.3862 23.323 34.3118 23.4336 34.261 23.5555C34.2102 23.6773 34.1841 23.808 34.1841 23.94C34.1841 24.072 34.2102 24.2028 34.261 24.3246C34.3118 24.4465 34.3862 24.5571 34.4799 24.65V24.65Z" fill="white"/>
<path d="M24.6499 34.4804C24.5569 34.3866 24.4463 34.3122 24.3244 34.2615C24.2026 34.2107 24.0719 34.1846 23.9399 34.1846C23.8078 34.1846 23.6771 34.2107 23.5553 34.2615C23.4334 34.3122 23.3228 34.3866 23.2299 34.4804L15.3399 42.3704C5.99985 39.5604 -1.06015 51.0904 5.86985 58.1304C12.7999 65.1704 24.4799 58.0004 21.6399 48.6604L29.5299 40.7804C29.6236 40.6874 29.698 40.5768 29.7487 40.4549C29.7995 40.3331 29.8257 40.2024 29.8257 40.0704C29.8257 39.9384 29.7995 39.8077 29.7487 39.6858C29.698 39.5639 29.6236 39.4533 29.5299 39.3604L24.6499 34.4804ZM17.6499 50.5904L16.5499 54.7004C16.5046 54.8708 16.4151 55.0263 16.2904 55.1509C16.1657 55.2756 16.0103 55.3651 15.8399 55.4104L11.7299 56.5104C11.5553 56.5622 11.3699 56.5654 11.1937 56.5195C11.0174 56.4737 10.8571 56.3806 10.7299 56.2504L7.72985 53.2504C7.59958 53.1232 7.50651 52.9628 7.46069 52.7866C7.41487 52.6103 7.41804 52.4249 7.46985 52.2504L8.56985 48.1404C8.61509 47.9699 8.70459 47.8145 8.82928 47.6898C8.95397 47.5651 9.10942 47.4756 9.27985 47.4304L13.3899 46.3304C13.5644 46.2786 13.7498 46.2754 13.926 46.3212C14.1023 46.367 14.2626 46.4601 14.3899 46.5904L17.3899 49.5904C17.5201 49.7176 17.6132 49.878 17.659 50.0542C17.7048 50.2304 17.7017 50.4158 17.6499 50.5904V50.5904Z" fill="white"/>
</svg>
